<svg width="15" height="14" viewBox="0 0 15 14" fill="none" xmlns="http://www.w3.org/2000/svg">
<path d="M10.4066 8.33337C10.4599 7.89337 10.4999 7.45337 10.4999 7.00004C10.4999 6.54671 10.4599 6.10671 10.4066 5.66671H12.6599C12.7666 6.09337 12.8333 6.54004 12.8333 7.00004C12.8333 7.46004 12.7666 7.90671 12.6599 8.33337H10.4066ZM9.22658 12.04C9.62659 11.3 9.93325 10.5 10.1466 9.66671H12.1133C11.4674 10.7789 10.4427 11.6214 9.22658 12.04ZM9.05992 8.33337H5.93992C5.87325 7.89337 5.83325 7.45337 5.83325 7.00004C5.83325 6.54671 5.87325 6.10004 5.93992 5.66671H9.05992C9.11992 6.10004 9.16658 6.54671 9.16658 7.00004C9.16658 7.45337 9.11992 7.89337 9.05992 8.33337ZM7.49992 12.3067C6.94658 11.5067 6.49992 10.62 6.22658 9.66671H8.77325C8.49992 10.62 8.05325 11.5067 7.49992 12.3067ZM4.83325 4.33337H2.88658C3.52582 3.21818 4.54978 2.37436 5.76658 1.96004C5.36658 2.70004 5.06659 3.50004 4.83325 4.33337ZM2.88658 9.66671H4.83325C5.06659 10.5 5.36658 11.3 5.76658 12.04C4.55233 11.6212 3.52982 10.7785 2.88658 9.66671ZM2.33992 8.33337C2.23325 7.90671 2.16659 7.46004 2.16659 7.00004C2.16659 6.54004 2.23325 6.09337 2.33992 5.66671H4.59325C4.53992 6.10671 4.49992 6.54671 4.49992 7.00004C4.49992 7.45337 4.53992 7.89337 4.59325 8.33337H2.33992ZM7.49992 1.68671C8.05325 2.48671 8.49992 3.38004 8.77325 4.33337H6.22658C6.49992 3.38004 6.94658 2.48671 7.49992 1.68671ZM12.1133 4.33337H10.1466C9.93793 3.50768 9.62897 2.71064 9.22658 1.96004C10.4533 2.38004 11.4733 3.22671 12.1133 4.33337ZM7.49992 0.333374C3.81325 0.333374 0.833252 3.33337 0.833252 7.00004C0.833252 8.76815 1.53563 10.4638 2.78587 11.7141C3.40493 12.3331 4.13986 12.8242 4.9487 13.1592C5.75753 13.4943 6.62444 13.6667 7.49992 13.6667C9.26803 13.6667 10.9637 12.9643 12.214 11.7141C13.4642 10.4638 14.1666 8.76815 14.1666 7.00004C14.1666 6.12456 13.9941 5.25765 13.6591 4.44882C13.3241 3.63998 12.833 2.90505 12.214 2.286C11.5949 1.66694 10.86 1.17588 10.0511 0.840844C9.2423 0.505812 8.3754 0.333374 7.49992 0.333374Z" fill="white"/>
</svg>
