<svg width="11" height="14" viewBox="0 0 11 14" fill="none"
    xmlns="http://www.w3.org/2000/svg">
    <path d="M5.50015 0C2.88399 0 0.73999 2.1376 0.73999 4.74656C0.73999 5.75744 1.06287 6.69696 1.60927 7.46912L4.91919 13.1912C5.38271 13.7968 5.69087 13.6818 6.07631 13.1592L9.72719 6.9464C9.80079 6.81296 9.85871 6.67088 9.90911 6.52576C10.1408 5.9612 10.2599 5.35681 10.2598 4.74656C10.26 2.1376 8.11663 0 5.50015 0ZM5.50015 2.224C6.90911 2.224 8.02943 3.34176 8.02943 4.74656C8.02943 6.15136 6.90911 7.26864 5.50015 7.26864C4.09135 7.26864 2.97055 6.15152 2.97055 4.74656C2.97055 3.34176 4.09135 2.22416 5.50015 2.22416V2.224Z" fill="white"/>
</svg>
