<svg width="15" height="14" viewBox="0 0 15 14" fill="none" xmlns="http://www.w3.org/2000/svg">
<path d="M8.16659 1.66671C9.40426 1.66671 10.5912 2.15837 11.4664 3.03354C12.3416 3.90871 12.8333 5.0957 12.8333 6.33337C12.8333 6.51018 12.9035 6.67975 13.0285 6.80478C13.1535 6.9298 13.3231 7.00004 13.4999 7.00004C13.6767 7.00004 13.8463 6.9298 13.9713 6.80478C14.0963 6.67975 14.1666 6.51018 14.1666 6.33337C14.1666 4.74207 13.5344 3.21595 12.4092 2.09073C11.284 0.965515 9.75788 0.333374 8.16659 0.333374C7.98977 0.333374 7.82021 0.403612 7.69518 0.528636C7.57016 0.65366 7.49992 0.82323 7.49992 1.00004C7.49992 1.17685 7.57016 1.34642 7.69518 1.47145C7.82021 1.59647 7.98977 1.66671 8.16659 1.66671ZM13.9999 9.60671C13.9633 9.49968 13.9 9.40375 13.816 9.32794C13.732 9.25214 13.6301 9.19894 13.5199 9.17337L9.51992 8.26004C9.41134 8.23542 9.29833 8.23839 9.1912 8.26866C9.08406 8.29894 8.98621 8.35557 8.90659 8.43337C8.81325 8.52004 8.80659 8.52671 8.37325 9.35337C6.93538 8.69081 5.78325 7.53394 5.12659 6.09337C5.97325 5.66671 5.97992 5.66671 6.06659 5.56671C6.14439 5.48708 6.20102 5.38923 6.23129 5.2821C6.26157 5.17496 6.26454 5.06195 6.23992 4.95337L5.32659 1.00004C5.30102 0.889838 5.24782 0.787955 5.17202 0.703982C5.09621 0.620009 5.00028 0.556709 4.89325 0.520041C4.73756 0.464434 4.57679 0.424241 4.41325 0.400041C4.24475 0.360971 4.07281 0.33864 3.89992 0.333374C3.08659 0.333374 2.30657 0.656468 1.73146 1.23158C1.15635 1.80669 0.833252 2.58671 0.833252 3.40004C0.83678 6.12185 1.91958 8.73116 3.84419 10.6558C5.7688 12.5804 8.37811 13.6632 11.0999 13.6667C11.5026 13.6667 11.9014 13.5874 12.2735 13.4333C12.6455 13.2792 12.9836 13.0533 13.2684 12.7685C13.5531 12.4837 13.779 12.1457 13.9331 11.7736C14.0873 11.4015 14.1666 11.0028 14.1666 10.6C14.1668 10.4304 14.1534 10.2609 14.1266 10.0934C14.0986 9.92778 14.0562 9.76495 13.9999 9.60671Z" fill="#F8EF00"/>
</svg>
