<svg width="1497" height="1014" viewBox="0 0 1497 1014" fill="none" xmlns="http://www.w3.org/2000/svg">
<g filter="url(#filter0_d_1761_8177)">
<rect x="153" y="153" width="1312" height="788" rx="8" fill="white"/>
<g clip-path="url(#clip0_1761_8177)">
<path d="M920.657 515.488C921.054 514.972 921.334 514.375 921.476 513.739C921.617 513.103 921.618 512.444 921.478 511.808C921.337 511.172 921.059 510.574 920.663 510.057C920.266 509.54 919.761 509.116 919.183 508.815L920.064 498.669L914.028 496.63L912.985 510.976C912.544 511.98 912.487 513.112 912.825 514.155C913.162 515.199 913.871 516.082 914.816 516.639C915.761 517.195 916.878 517.385 917.954 517.173C919.03 516.961 919.991 516.362 920.655 515.489L920.657 515.488Z" fill="#FFB8B8"/>
<path d="M950.772 594.374H945.341L942.757 573.414H950.776L950.772 594.374Z" fill="#FFB8B8"/>
<path d="M941.46 592.82H951.939V599.418H934.862C934.862 597.668 935.557 595.99 936.794 594.753C938.032 593.516 939.71 592.82 941.46 592.82Z" fill="#2F2E41"/>
<path d="M938.44 580.466L933.165 581.762L925.652 562.027L933.44 560.113L938.44 580.466Z" fill="#FFB8B8"/>
<path d="M929.099 580.993L939.275 578.489L940.852 584.895L924.27 588.977C923.852 587.278 924.125 585.482 925.031 583.985C925.937 582.488 927.4 581.412 929.099 580.993Z" fill="#2F2E41"/>
<path d="M944.415 587.69C943.919 587.692 943.44 587.509 943.071 587.177C942.702 586.845 942.47 586.388 942.419 585.894L936.168 527.648L930.727 545.46L938.433 573.28C938.566 573.756 938.517 574.265 938.298 574.709C938.078 575.153 937.702 575.499 937.242 575.683L931.116 578.133C930.864 578.234 930.594 578.283 930.322 578.276C930.051 578.27 929.783 578.209 929.536 578.096C929.289 577.983 929.067 577.822 928.884 577.621C928.701 577.42 928.56 577.184 928.471 576.928L919.028 549.833C917.994 546.874 917.536 543.745 917.68 540.615L918.998 511.374L953.714 512.844L953.173 585.189C953.166 585.693 952.972 586.176 952.628 586.544C952.284 586.912 951.815 587.138 951.313 587.179L944.571 587.687C944.519 587.689 944.467 587.69 944.415 587.69Z" fill="#2F2E41"/>
<path d="M938.666 446.661C945.113 446.661 950.339 441.434 950.339 434.987C950.339 428.54 945.113 423.314 938.666 423.314C932.219 423.314 926.992 428.54 926.992 434.987C926.992 441.434 932.219 446.661 938.666 446.661Z" fill="#FFB8B8"/>
<path d="M947.25 514.746C944.176 514.746 940.358 514.494 936.405 514.234C931.006 513.879 925.423 513.511 921.256 513.753C920.693 513.809 920.125 513.719 919.607 513.493C919.088 513.268 918.636 512.913 918.294 512.463C913.997 506.962 920.622 485.51 920.908 484.6L926.299 460.613L926.531 460.666L926.299 460.613C927.487 455.338 931.276 451.446 936.191 450.457C940.792 449.534 945.242 451.375 948.096 455.389C948.248 455.602 948.399 455.82 948.55 456.044C957.843 469.807 952.587 504 952.235 506.205C952.726 506.793 955.38 510.118 954.65 512.427C954.353 513.367 953.547 514.007 952.254 514.328C950.606 514.655 948.927 514.794 947.248 514.744L947.25 514.746Z" fill="#003973"/>
<path d="M921.444 514.756C920.386 514.756 918.96 514.366 917.037 513.568C916.21 513.224 913.695 512.178 916.749 485.492C918.249 472.383 920.398 459.366 920.419 459.237L920.439 459.111L920.555 459.059C920.61 459.034 926.098 456.518 927.053 453.286C927.084 453.174 927.121 453.066 927.164 452.96C927.426 452.242 927.956 451.653 928.643 451.315C929.33 450.978 930.12 450.919 930.849 451.151C931.619 451.335 932.291 451.805 932.727 452.466C933.163 453.127 933.332 453.929 933.198 454.71C932.866 456.818 932.227 458.866 931.301 460.789C928.719 466.117 926.969 480.242 926.952 480.384C926.853 481.59 924.51 510.171 924.059 512.34C923.901 513.097 923.611 514.024 922.76 514.474C922.351 514.675 921.9 514.773 921.445 514.759L921.444 514.756Z" fill="#2F2E41"/>
<path d="M934.196 513.661C933.983 513.661 933.776 513.59 933.607 513.459C930.173 510.849 935.731 479.214 939.026 468.299C939.686 466.113 940.273 464.242 940.773 462.736C941.683 460.033 942.318 457.245 942.669 454.415C942.85 452.882 943.244 452.007 943.874 451.738C944.312 451.551 944.825 451.678 945.405 452.115C948.45 451.965 951.409 453.208 954.15 454.577L956.618 455.808L959.387 504.834C959.308 507.962 953.141 510.171 950.451 510.312C946.132 510.539 938.374 511.242 934.957 513.406C934.733 513.562 934.469 513.65 934.197 513.661L934.196 513.661Z" fill="#2F2E41"/>
<path d="M918.77 504.462C918.729 504.462 918.689 504.462 918.647 504.459L913.054 504.115C912.776 504.097 912.504 504.023 912.256 503.895C912.008 503.767 911.789 503.589 911.614 503.372C911.438 503.155 911.31 502.904 911.237 502.635C911.164 502.365 911.148 502.084 911.19 501.808L913.72 485.04L918.485 461.514C918.602 460.934 918.84 460.386 919.183 459.904C919.526 459.422 919.966 459.018 920.475 458.718C920.984 458.417 921.551 458.227 922.138 458.159C922.726 458.091 923.321 458.148 923.885 458.325C924.849 458.633 925.672 459.275 926.204 460.136C926.737 460.997 926.944 462.02 926.788 463.02L923.003 486.595L920.762 502.729C920.693 503.209 920.454 503.648 920.088 503.966C919.723 504.284 919.255 504.46 918.77 504.462H918.77Z" fill="#2F2E41"/>
<path d="M937.878 486.109C938.219 485.554 938.677 485.081 939.221 484.722C939.765 484.363 940.381 484.128 941.026 484.034C941.67 483.939 942.328 483.986 942.952 484.173C943.576 484.36 944.152 484.681 944.639 485.114L953.809 480.685L957.86 485.601L944.822 491.675C944.04 492.444 943.003 492.899 941.907 492.955C940.812 493.011 939.734 492.662 938.878 491.976C938.022 491.29 937.447 490.314 937.263 489.233C937.079 488.152 937.297 487.04 937.878 486.109Z" fill="#FFB8B8"/>
<path d="M950.617 490.867C950.165 490.867 949.727 490.715 949.372 490.435C949.017 490.156 948.767 489.765 948.661 489.326L947.331 483.789C947.229 483.373 947.264 482.935 947.43 482.539C947.596 482.144 947.884 481.813 948.253 481.594L956.285 476.786L952.178 461.751C951.823 460.463 951.986 459.088 952.632 457.919C953.278 456.75 954.357 455.88 955.636 455.496C956.915 455.112 958.294 455.244 959.477 455.864C960.66 456.484 961.554 457.542 961.966 458.813L966.5 472.656C967.057 474.343 967.061 476.164 966.512 477.854C965.963 479.544 964.89 481.015 963.448 482.053L951.794 490.485C951.451 490.733 951.039 490.866 950.617 490.867Z" fill="#2F2E41"/>
<path d="M863.83 350H638.928C636.826 350.003 634.811 350.839 633.325 352.325C631.839 353.811 631.003 355.826 631 357.928V382.129C631.003 384.231 631.839 386.246 633.325 387.732C634.811 389.218 636.826 390.055 638.928 390.057H863.83C865.932 390.055 867.947 389.218 869.433 387.732C870.919 386.246 871.755 384.231 871.758 382.129V357.928C871.755 355.826 870.919 353.811 869.433 352.325C867.947 350.839 865.932 350.003 863.83 350ZM870.923 382.129C870.92 384.01 870.172 385.812 868.842 387.142C867.513 388.471 865.71 389.22 863.83 389.222H638.928C637.047 389.22 635.245 388.471 633.915 387.142C632.586 385.812 631.837 384.01 631.835 382.129V357.928C631.837 356.047 632.586 354.245 633.915 352.915C635.245 351.586 637.047 350.837 638.928 350.835H863.83C865.71 350.837 867.513 351.586 868.842 352.915C870.172 354.245 870.92 356.047 870.923 357.928V382.129Z" fill="#3F3D56"/>
<path d="M863.83 447.221H638.928C636.826 447.218 634.811 446.382 633.325 444.896C631.839 443.41 631.003 441.395 631 439.293V415.092C631.003 412.99 631.839 410.975 633.325 409.489C634.811 408.003 636.826 407.167 638.928 407.164H863.83C865.932 407.167 867.947 408.003 869.433 409.489C870.919 410.975 871.755 412.99 871.758 415.092V439.293C871.755 441.395 870.919 443.41 869.433 444.896C867.947 446.382 865.932 447.218 863.83 447.221ZM638.928 407.999C637.047 408.001 635.244 408.749 633.915 410.079C632.585 411.409 631.837 413.212 631.835 415.092V439.293C631.836 441.174 632.584 442.977 633.914 444.307C635.244 445.637 637.047 446.386 638.928 446.388H863.83C865.71 446.386 867.514 445.638 868.843 444.308C870.173 442.978 870.921 441.175 870.923 439.295V415.092C870.921 413.212 870.173 411.409 868.844 410.079C867.514 408.749 865.711 408.001 863.83 407.999H638.928Z" fill="#CCCCCC"/>
<path d="M863.83 504.385H638.928C636.826 504.383 634.811 503.547 633.325 502.061C631.839 500.575 631.003 498.56 631 496.458V472.257C631.003 470.155 631.839 468.14 633.325 466.654C634.811 465.167 636.826 464.331 638.928 464.329H863.83C865.932 464.331 867.947 465.167 869.433 466.654C870.919 468.14 871.755 470.155 871.758 472.257V496.458C871.755 498.56 870.919 500.575 869.433 502.061C867.947 503.547 865.932 504.383 863.83 504.385ZM638.928 465.162C637.047 465.164 635.244 465.912 633.915 467.242C632.585 468.571 631.837 470.374 631.835 472.255V496.456C631.837 498.336 632.585 500.14 633.914 501.469C635.244 502.799 637.047 503.547 638.928 503.549H863.83C865.71 503.547 867.514 502.799 868.843 501.47C870.173 500.14 870.921 498.337 870.923 496.456V472.257C870.922 470.376 870.174 468.572 868.844 467.242C867.514 465.912 865.711 465.164 863.83 465.162H638.928Z" fill="#CCCCCC"/>
<path d="M669.317 383.827C666.588 383.827 663.92 383.018 661.651 381.502C659.382 379.985 657.613 377.83 656.569 375.309C655.525 372.788 655.251 370.013 655.784 367.337C656.316 364.66 657.63 362.201 659.56 360.272C661.49 358.342 663.948 357.028 666.625 356.495C669.302 355.963 672.076 356.236 674.597 357.28C677.119 358.325 679.274 360.093 680.79 362.362C682.306 364.632 683.116 367.299 683.116 370.029C683.116 373.688 681.662 377.198 679.074 379.786C676.486 382.373 672.977 383.827 669.317 383.827Z" fill="#003973"/>
<path d="M843.457 381.294H696.166C695.281 381.294 694.432 380.942 693.806 380.316C693.18 379.69 692.828 378.841 692.828 377.956C692.828 377.071 693.18 376.222 693.806 375.596C694.432 374.969 695.281 374.618 696.166 374.618H843.457C844.342 374.618 845.192 374.969 845.818 375.596C846.444 376.222 846.795 377.071 846.795 377.956C846.795 378.841 846.444 379.69 845.818 380.316C845.192 380.942 844.342 381.294 843.457 381.294Z" fill="#CCCCCC"/>
<path d="M795.47 367.107H696.163C695.278 367.107 694.428 366.756 693.802 366.13C693.176 365.504 692.825 364.655 692.825 363.769C692.825 362.884 693.176 362.035 693.802 361.409C694.428 360.783 695.278 360.431 696.163 360.431H795.47C796.355 360.431 797.204 360.783 797.83 361.409C798.456 362.035 798.808 362.884 798.808 363.769C798.808 364.655 798.456 365.504 797.83 366.13C797.204 366.756 796.355 367.107 795.47 367.107Z" fill="#CCCCCC"/>
<path d="M669.317 440.991C666.588 440.991 663.92 440.182 661.651 438.665C659.382 437.149 657.613 434.994 656.569 432.473C655.525 429.951 655.251 427.177 655.784 424.5C656.316 421.824 657.63 419.365 659.56 417.435C661.49 415.506 663.948 414.191 666.625 413.659C669.302 413.127 672.076 413.4 674.597 414.444C677.119 415.489 679.274 417.257 680.79 419.526C682.306 421.795 683.116 424.463 683.116 427.192C683.116 430.852 681.662 434.362 679.074 436.949C676.486 439.537 672.977 440.991 669.317 440.991Z" fill="#E6E6E6"/>
<path d="M843.457 438.459H696.166C695.281 438.459 694.432 438.107 693.806 437.481C693.18 436.855 692.828 436.006 692.828 435.121C692.828 434.235 693.18 433.386 693.806 432.76C694.432 432.134 695.281 431.782 696.166 431.782H843.457C844.342 431.782 845.192 432.134 845.818 432.76C846.444 433.386 846.795 434.235 846.795 435.121C846.795 436.006 846.444 436.855 845.818 437.481C845.192 438.107 844.342 438.459 843.457 438.459Z" fill="#E6E6E6"/>
<path d="M795.47 424.272H696.163C695.278 424.272 694.428 423.92 693.802 423.294C693.176 422.668 692.825 421.819 692.825 420.934C692.825 420.048 693.176 419.199 693.802 418.573C694.428 417.947 695.278 417.595 696.163 417.595H795.47C796.355 417.595 797.204 417.947 797.83 418.573C798.456 419.199 798.808 420.048 798.808 420.934C798.808 421.819 798.456 422.668 797.83 423.294C797.204 423.92 796.355 424.272 795.47 424.272Z" fill="#E6E6E6"/>
<path d="M669.317 498.155C666.588 498.155 663.92 497.346 661.651 495.83C659.382 494.314 657.613 492.159 656.569 489.637C655.525 487.116 655.251 484.342 655.784 481.665C656.316 478.988 657.63 476.53 659.56 474.6C661.49 472.67 663.948 471.356 666.625 470.824C669.302 470.291 672.076 470.564 674.597 471.609C677.119 472.653 679.274 474.422 680.79 476.691C682.306 478.96 683.116 481.628 683.116 484.357C683.116 488.016 681.662 491.526 679.074 494.114C676.486 496.702 672.977 498.155 669.317 498.155Z" fill="#E6E6E6"/>
<path d="M843.457 495.623H696.166C695.281 495.623 694.432 495.272 693.806 494.646C693.18 494.019 692.828 493.17 692.828 492.285C692.828 491.4 693.18 490.551 693.806 489.925C694.432 489.299 695.281 488.947 696.166 488.947H843.457C844.342 488.947 845.192 489.299 845.818 489.925C846.444 490.551 846.795 491.4 846.795 492.285C846.795 493.17 846.444 494.019 845.818 494.646C845.192 495.272 844.342 495.623 843.457 495.623Z" fill="#E6E6E6"/>
<path d="M795.47 481.436H696.163C695.278 481.436 694.428 481.085 693.802 480.459C693.176 479.833 692.825 478.983 692.825 478.098C692.825 477.213 693.176 476.364 693.802 475.738C694.428 475.112 695.278 474.76 696.163 474.76H795.47C796.355 474.76 797.204 475.112 797.83 475.738C798.456 476.364 798.808 477.213 798.808 478.098C798.808 478.983 798.456 479.833 797.83 480.459C797.204 481.085 796.355 481.436 795.47 481.436Z" fill="#E6E6E6"/>
<path d="M668.612 374.882C668.27 374.883 667.936 374.772 667.662 374.567L667.645 374.554L664.068 371.818C663.903 371.691 663.764 371.533 663.659 371.352C663.555 371.171 663.487 370.972 663.459 370.765C663.432 370.558 663.446 370.348 663.5 370.146C663.554 369.944 663.647 369.755 663.774 369.59C663.901 369.424 664.059 369.285 664.24 369.18C664.421 369.076 664.62 369.008 664.827 368.981C665.034 368.954 665.244 368.967 665.446 369.021C665.647 369.075 665.837 369.168 666.002 369.295L668.319 371.072L673.793 363.93C674.049 363.596 674.428 363.377 674.845 363.322C675.263 363.267 675.685 363.38 676.02 363.636L675.986 363.683L676.021 363.636C676.355 363.893 676.573 364.271 676.628 364.689C676.683 365.107 676.57 365.529 676.314 365.864L669.876 374.26C669.727 374.453 669.535 374.609 669.316 374.716C669.096 374.824 668.856 374.879 668.611 374.878L668.612 374.882Z" fill="white"/>
<path d="M985.857 600H891.751C891.625 600 891.504 599.95 891.415 599.861C891.325 599.772 891.275 599.651 891.275 599.525C891.275 599.399 891.325 599.278 891.415 599.189C891.504 599.1 891.625 599.049 891.751 599.049H985.857C985.983 599.049 986.104 599.1 986.193 599.189C986.282 599.278 986.332 599.399 986.332 599.525C986.332 599.651 986.282 599.772 986.193 599.861C986.104 599.95 985.983 600 985.857 600Z" fill="#CCCCCC"/>
<path d="M942.957 438.099C942.957 438.099 941.536 430.244 938.304 431.183C935.071 432.121 926.752 433.081 926.737 429.382C926.721 425.683 934.568 422.413 939.193 422.856C943.819 423.298 951.685 424.652 951.252 431.59C950.905 435.959 949.555 440.19 947.306 443.952L942.957 438.099Z" fill="#2F2E41"/>
</g>
<path d="M712.782 664H706.356L698.876 645.334C699.08 646.943 699.239 648.462 699.352 649.89C699.488 651.295 699.556 652.95 699.556 654.854V664H695.034V640.472H701.324L708.94 659.172C708.487 656.135 708.26 653.347 708.26 650.808V640.472H712.782V664ZM725.31 645.436C728.007 645.436 730.115 646.286 731.634 647.986C733.153 649.663 733.912 651.998 733.912 654.99C733.912 656.894 733.561 658.571 732.858 660.022C732.178 661.45 731.181 662.561 729.866 663.354C728.574 664.147 727.044 664.544 725.276 664.544C722.579 664.544 720.459 663.705 718.918 662.028C717.399 660.328 716.64 657.982 716.64 654.99C716.64 653.086 716.98 651.42 717.66 649.992C718.363 648.541 719.36 647.419 720.652 646.626C721.967 645.833 723.519 645.436 725.31 645.436ZM725.31 649.04C724.086 649.04 723.168 649.527 722.556 650.502C721.967 651.454 721.672 652.95 721.672 654.99C721.672 657.03 721.967 658.537 722.556 659.512C723.168 660.464 724.075 660.94 725.276 660.94C726.477 660.94 727.373 660.464 727.962 659.512C728.574 658.537 728.88 657.03 728.88 654.99C728.88 652.95 728.585 651.454 727.996 650.502C727.407 649.527 726.511 649.04 725.31 649.04ZM753.33 639.928C755.03 639.928 756.504 640.177 757.75 640.676C759.02 641.152 760.187 641.889 761.252 642.886L758.872 645.64C758.034 644.96 757.195 644.461 756.356 644.144C755.518 643.827 754.622 643.668 753.67 643.668C752.628 643.668 751.789 643.895 751.154 644.348C750.542 644.779 750.236 645.402 750.236 646.218C750.236 646.785 750.361 647.249 750.61 647.612C750.882 647.975 751.347 648.315 752.004 648.632C752.662 648.949 753.648 649.312 754.962 649.72C757.297 650.468 759.042 651.397 760.198 652.508C761.354 653.596 761.932 655.16 761.932 657.2C761.932 658.651 761.57 659.931 760.844 661.042C760.119 662.13 759.065 662.991 757.682 663.626C756.3 664.238 754.679 664.544 752.82 664.544C750.962 664.544 749.307 664.249 747.856 663.66C746.406 663.071 745.159 662.266 744.116 661.246L746.666 658.424C747.573 659.195 748.514 659.784 749.488 660.192C750.463 660.577 751.528 660.77 752.684 660.77C753.908 660.77 754.883 660.487 755.608 659.92C756.356 659.353 756.73 658.56 756.73 657.54C756.73 656.905 756.594 656.384 756.322 655.976C756.073 655.545 755.631 655.16 754.996 654.82C754.362 654.48 753.444 654.129 752.242 653.766C749.681 652.973 747.845 652.021 746.734 650.91C745.646 649.799 745.102 648.349 745.102 646.558C745.102 645.243 745.454 644.087 746.156 643.09C746.859 642.07 747.834 641.288 749.08 640.744C750.327 640.2 751.744 639.928 753.33 639.928ZM776.142 663.15C775.484 663.603 774.736 663.943 773.898 664.17C773.082 664.419 772.266 664.544 771.45 664.544C769.591 664.521 768.186 663.989 767.234 662.946C766.282 661.903 765.806 660.373 765.806 658.356V649.38H763.12V645.98H765.806V642.036L770.634 641.458V645.98H774.782L774.306 649.38H770.634V658.254C770.634 659.115 770.781 659.739 771.076 660.124C771.37 660.509 771.824 660.702 772.436 660.702C773.048 660.702 773.728 660.498 774.476 660.09L776.142 663.15ZM793.121 664H788.939L788.701 661.586C788.066 662.583 787.295 663.331 786.389 663.83C785.482 664.306 784.428 664.544 783.227 664.544C781.595 664.544 780.348 664.057 779.487 663.082C778.625 662.085 778.195 660.702 778.195 658.934V645.98H783.023V658.322C783.023 659.274 783.181 659.954 783.499 660.362C783.816 660.747 784.315 660.94 784.995 660.94C786.287 660.94 787.386 660.158 788.293 658.594V645.98H793.121V664ZM813.579 638.806V664H809.329L809.057 661.79C807.788 663.626 806.065 664.544 803.889 664.544C801.668 664.544 799.968 663.694 798.789 661.994C797.633 660.271 797.055 657.937 797.055 654.99C797.055 653.131 797.35 651.488 797.939 650.06C798.551 648.609 799.413 647.476 800.523 646.66C801.634 645.844 802.915 645.436 804.365 645.436C806.043 645.436 807.505 646.037 808.751 647.238V638.262L813.579 638.806ZM805.317 660.94C806.02 660.94 806.643 660.77 807.187 660.43C807.731 660.067 808.253 659.512 808.751 658.764V650.706C808.275 650.139 807.788 649.72 807.289 649.448C806.813 649.153 806.258 649.006 805.623 649.006C804.513 649.006 803.64 649.493 803.005 650.468C802.393 651.443 802.087 652.95 802.087 654.99C802.087 657.143 802.359 658.673 802.903 659.58C803.47 660.487 804.275 660.94 805.317 660.94ZM833.644 654.582C833.644 654.809 833.61 655.432 833.542 656.452H822.288C822.446 658.084 822.888 659.24 823.614 659.92C824.339 660.6 825.325 660.94 826.572 660.94C827.342 660.94 828.068 660.815 828.748 660.566C829.428 660.317 830.164 659.92 830.958 659.376L832.964 662.096C830.946 663.728 828.668 664.544 826.13 664.544C823.296 664.544 821.12 663.694 819.602 661.994C818.083 660.294 817.324 657.993 817.324 655.092C817.324 653.256 817.641 651.613 818.276 650.162C818.933 648.689 819.874 647.533 821.098 646.694C822.344 645.855 823.818 645.436 825.518 645.436C828.079 645.436 830.074 646.241 831.502 647.85C832.93 649.459 833.644 651.703 833.644 654.582ZM828.85 653.222C828.85 650.23 827.773 648.734 825.62 648.734C824.622 648.734 823.84 649.108 823.274 649.856C822.73 650.581 822.401 651.771 822.288 653.426H828.85V653.222ZM847.287 645.436C848.874 645.436 850.109 645.923 850.993 646.898C851.877 647.85 852.319 649.176 852.319 650.876V664H847.491V651.692C847.491 650.717 847.321 650.037 846.981 649.652C846.664 649.244 846.177 649.04 845.519 649.04C844.839 649.04 844.216 649.255 843.649 649.686C843.105 650.094 842.573 650.717 842.051 651.556V664H837.223V645.98H841.405L841.779 648.258C842.527 647.329 843.343 646.626 844.227 646.15C845.134 645.674 846.154 645.436 847.287 645.436ZM867.776 663.15C867.118 663.603 866.37 663.943 865.532 664.17C864.716 664.419 863.9 664.544 863.084 664.544C861.225 664.521 859.82 663.989 858.868 662.946C857.916 661.903 857.44 660.373 857.44 658.356V649.38H854.754V645.98H857.44V642.036L862.268 641.458V645.98H866.416L865.94 649.38H862.268V658.254C862.268 659.115 862.415 659.739 862.71 660.124C863.004 660.509 863.458 660.702 864.07 660.702C864.682 660.702 865.362 660.498 866.11 660.09L867.776 663.15ZM895.963 640.472L888.415 655.126V664H883.417V655.16L875.869 640.472H881.343L886.035 651.148L890.693 640.472H895.963ZM911.332 654.582C911.332 654.809 911.298 655.432 911.23 656.452H899.976C900.135 658.084 900.577 659.24 901.302 659.92C902.028 660.6 903.014 660.94 904.26 660.94C905.031 660.94 905.756 660.815 906.436 660.566C907.116 660.317 907.853 659.92 908.646 659.376L910.652 662.096C908.635 663.728 906.357 664.544 903.818 664.544C900.985 664.544 898.809 663.694 897.29 661.994C895.772 660.294 895.012 657.993 895.012 655.092C895.012 653.256 895.33 651.613 895.964 650.162C896.622 648.689 897.562 647.533 898.786 646.694C900.033 645.855 901.506 645.436 903.206 645.436C905.768 645.436 907.762 646.241 909.19 647.85C910.618 649.459 911.332 651.703 911.332 654.582ZM906.538 653.222C906.538 650.23 905.462 648.734 903.308 648.734C902.311 648.734 901.529 649.108 900.962 649.856C900.418 650.581 900.09 651.771 899.976 653.426H906.538V653.222ZM925.69 663.15C925.033 663.603 924.285 663.943 923.446 664.17C922.63 664.419 921.814 664.544 920.998 664.544C919.139 664.521 917.734 663.989 916.782 662.946C915.83 661.903 915.354 660.373 915.354 658.356V649.38H912.668V645.98H915.354V642.036L920.182 641.458V645.98H924.33L923.854 649.38H920.182V658.254C920.182 659.115 920.329 659.739 920.624 660.124C920.919 660.509 921.372 660.702 921.984 660.702C922.596 660.702 923.276 660.498 924.024 660.09L925.69 663.15Z" fill="#061725"/>
<path d="M541.311 693.401L541.111 695.021H537.291V707.181H535.391V695.021H531.471V693.401H541.311ZM548.393 696.401C549.353 696.401 550.1 696.688 550.633 697.261C551.18 697.834 551.453 698.621 551.453 699.621V707.181H549.613V699.881C549.613 699.134 549.466 698.608 549.173 698.301C548.893 697.994 548.48 697.841 547.933 697.841C547.386 697.841 546.9 698.001 546.473 698.321C546.046 698.641 545.646 699.094 545.273 699.681V707.181H543.433V692.421L545.273 692.221V698.101C546.1 696.968 547.14 696.401 548.393 696.401ZM563.142 701.601C563.142 701.908 563.128 702.221 563.102 702.541H556.382C556.462 703.701 556.755 704.554 557.262 705.101C557.768 705.648 558.422 705.921 559.222 705.921C559.728 705.921 560.195 705.848 560.622 705.701C561.048 705.554 561.495 705.321 561.962 705.001L562.762 706.101C561.642 706.981 560.415 707.421 559.082 707.421C557.615 707.421 556.468 706.941 555.642 705.981C554.828 705.021 554.422 703.701 554.422 702.021C554.422 700.928 554.595 699.961 554.942 699.121C555.302 698.268 555.808 697.601 556.462 697.121C557.128 696.641 557.908 696.401 558.802 696.401C560.202 696.401 561.275 696.861 562.022 697.781C562.768 698.701 563.142 699.974 563.142 701.601ZM561.322 701.061C561.322 700.021 561.115 699.228 560.702 698.681C560.288 698.134 559.668 697.861 558.842 697.861C557.335 697.861 556.515 698.968 556.382 701.181H561.322V701.061ZM573.533 707.421C572.853 707.421 572.313 707.221 571.913 706.821C571.526 706.408 571.333 705.834 571.333 705.101V692.401L573.173 692.181V705.061C573.173 705.354 573.22 705.568 573.313 705.701C573.42 705.834 573.593 705.901 573.833 705.901C574.086 705.901 574.313 705.861 574.513 705.781L574.993 707.061C574.553 707.301 574.066 707.421 573.533 707.421ZM579.162 696.641V707.181H577.322V696.641H579.162ZM578.222 691.581C578.609 691.581 578.922 691.701 579.162 691.941C579.402 692.181 579.522 692.481 579.522 692.841C579.522 693.201 579.402 693.501 579.162 693.741C578.922 693.968 578.609 694.081 578.222 694.081C577.849 694.081 577.542 693.968 577.302 693.741C577.062 693.501 576.942 693.201 576.942 692.841C576.942 692.481 577.062 692.181 577.302 691.941C577.542 691.701 577.849 691.581 578.222 691.581ZM585.857 696.401C586.577 696.401 587.224 696.501 587.797 696.701C588.37 696.901 588.917 697.201 589.437 697.601L588.657 698.761C588.177 698.454 587.717 698.228 587.277 698.081C586.85 697.934 586.397 697.861 585.917 697.861C585.317 697.861 584.844 697.988 584.497 698.241C584.15 698.481 583.977 698.814 583.977 699.241C583.977 699.668 584.137 700.001 584.457 700.241C584.79 700.481 585.384 700.714 586.237 700.941C587.41 701.234 588.284 701.634 588.857 702.141C589.444 702.648 589.737 703.341 589.737 704.221C589.737 705.261 589.33 706.054 588.517 706.601C587.717 707.148 586.737 707.421 585.577 707.421C583.977 707.421 582.65 706.961 581.597 706.041L582.577 704.921C583.47 705.601 584.457 705.941 585.537 705.941C586.23 705.941 586.777 705.801 587.177 705.521C587.59 705.228 587.797 704.834 587.797 704.341C587.797 703.981 587.724 703.694 587.577 703.481C587.43 703.254 587.177 703.061 586.817 702.901C586.457 702.728 585.93 702.548 585.237 702.361C584.117 702.068 583.304 701.674 582.797 701.181C582.304 700.688 582.057 700.061 582.057 699.301C582.057 698.754 582.217 698.261 582.537 697.821C582.87 697.368 583.324 697.021 583.897 696.781C584.484 696.528 585.137 696.401 585.857 696.401ZM597.683 706.701C596.99 707.181 596.203 707.421 595.323 707.421C594.43 707.421 593.73 707.168 593.223 706.661C592.73 706.141 592.483 705.394 592.483 704.421V698.061H590.643V696.641H592.483V694.261L594.323 694.041V696.641H596.823L596.623 698.061H594.323V704.341C594.323 704.888 594.416 705.288 594.603 705.541C594.803 705.781 595.13 705.901 595.583 705.901C595.996 705.901 596.463 705.761 596.983 705.481L597.683 706.701ZM608.902 696.401C610.382 696.401 611.529 696.894 612.342 697.881C613.169 698.868 613.582 700.208 613.582 701.901C613.582 702.994 613.396 703.961 613.022 704.801C612.649 705.628 612.109 706.274 611.402 706.741C610.696 707.194 609.856 707.421 608.882 707.421C607.402 707.421 606.249 706.928 605.422 705.941C604.596 704.954 604.182 703.614 604.182 701.921C604.182 700.828 604.369 699.868 604.742 699.041C605.116 698.201 605.656 697.554 606.362 697.101C607.069 696.634 607.916 696.401 608.902 696.401ZM608.902 697.881C607.076 697.881 606.162 699.228 606.162 701.921C606.162 704.601 607.069 705.941 608.882 705.941C610.696 705.941 611.602 704.594 611.602 701.901C611.602 699.221 610.702 697.881 608.902 697.881ZM620.232 693.661C619.672 693.661 619.272 693.788 619.032 694.041C618.792 694.281 618.672 694.661 618.672 695.181V696.641H621.232L621.032 698.061H618.672V707.181H616.832V698.061H614.952V696.641H616.832V695.201C616.832 694.294 617.119 693.568 617.692 693.021C618.279 692.461 619.092 692.181 620.132 692.181C620.612 692.181 621.039 692.228 621.412 692.321C621.799 692.401 622.212 692.534 622.652 692.721L622.072 694.061C621.472 693.794 620.859 693.661 620.232 693.661ZM634.024 706.701C633.331 707.181 632.544 707.421 631.664 707.421C630.771 707.421 630.071 707.168 629.564 706.661C629.071 706.141 628.824 705.394 628.824 704.421V698.061H626.984V696.641H628.824V694.261L630.664 694.041V696.641H633.164L632.964 698.061H630.664V704.341C630.664 704.888 630.758 705.288 630.944 705.541C631.144 705.781 631.471 705.901 631.924 705.901C632.338 705.901 632.804 705.761 633.324 705.481L634.024 706.701ZM640.921 696.401C641.881 696.401 642.628 696.688 643.161 697.261C643.708 697.834 643.981 698.621 643.981 699.621V707.181H642.141V699.881C642.141 699.134 641.994 698.608 641.701 698.301C641.421 697.994 641.008 697.841 640.461 697.841C639.914 697.841 639.428 698.001 639.001 698.321C638.574 698.641 638.174 699.094 637.801 699.681V707.181H635.961V692.421L637.801 692.221V698.101C638.628 696.968 639.668 696.401 640.921 696.401ZM655.67 701.601C655.67 701.908 655.656 702.221 655.63 702.541H648.91C648.99 703.701 649.283 704.554 649.79 705.101C650.296 705.648 650.95 705.921 651.75 705.921C652.256 705.921 652.723 705.848 653.15 705.701C653.576 705.554 654.023 705.321 654.49 705.001L655.29 706.101C654.17 706.981 652.943 707.421 651.61 707.421C650.143 707.421 648.996 706.941 648.17 705.981C647.356 705.021 646.95 703.701 646.95 702.021C646.95 700.928 647.123 699.961 647.47 699.121C647.83 698.268 648.336 697.601 648.99 697.121C649.656 696.641 650.436 696.401 651.33 696.401C652.73 696.401 653.803 696.861 654.55 697.781C655.296 698.701 655.67 699.974 655.67 701.601ZM653.85 701.061C653.85 700.021 653.643 699.228 653.23 698.681C652.816 698.134 652.196 697.861 651.37 697.861C649.863 697.861 649.043 698.968 648.91 701.181H653.85V701.061ZM666.821 696.401C667.541 696.401 668.188 696.501 668.761 696.701C669.334 696.901 669.881 697.201 670.401 697.601L669.621 698.761C669.141 698.454 668.681 698.228 668.241 698.081C667.814 697.934 667.361 697.861 666.881 697.861C666.281 697.861 665.808 697.988 665.461 698.241C665.114 698.481 664.941 698.814 664.941 699.241C664.941 699.668 665.101 700.001 665.421 700.241C665.754 700.481 666.348 700.714 667.201 700.941C668.374 701.234 669.248 701.634 669.821 702.141C670.408 702.648 670.701 703.341 670.701 704.221C670.701 705.261 670.294 706.054 669.481 706.601C668.681 707.148 667.701 707.421 666.541 707.421C664.941 707.421 663.614 706.961 662.561 706.041L663.541 704.921C664.434 705.601 665.421 705.941 666.501 705.941C667.194 705.941 667.741 705.801 668.141 705.521C668.554 705.228 668.761 704.834 668.761 704.341C668.761 703.981 668.688 703.694 668.541 703.481C668.394 703.254 668.141 703.061 667.781 702.901C667.421 702.728 666.894 702.548 666.201 702.361C665.081 702.068 664.268 701.674 663.761 701.181C663.268 700.688 663.021 700.061 663.021 699.301C663.021 698.754 663.181 698.261 663.501 697.821C663.834 697.368 664.288 697.021 664.861 696.781C665.448 696.528 666.101 696.401 666.821 696.401ZM678.647 706.701C677.954 707.181 677.167 707.421 676.287 707.421C675.394 707.421 674.694 707.168 674.187 706.661C673.694 706.141 673.447 705.394 673.447 704.421V698.061H671.607V696.641H673.447V694.261L675.287 694.041V696.641H677.787L677.587 698.061H675.287V704.341C675.287 704.888 675.38 705.288 675.567 705.541C675.767 705.781 676.094 705.901 676.547 705.901C676.96 705.901 677.427 705.761 677.947 705.481L678.647 706.701ZM688.424 707.181H686.844L686.704 705.541C686.304 706.194 685.844 706.674 685.324 706.981C684.804 707.274 684.17 707.421 683.424 707.421C682.504 707.421 681.784 707.141 681.264 706.581C680.744 706.021 680.484 705.228 680.484 704.201V696.641H682.324V704.001C682.324 704.721 682.45 705.234 682.704 705.541C682.957 705.834 683.37 705.981 683.944 705.981C684.97 705.981 685.85 705.374 686.584 704.161V696.641H688.424V707.181ZM700.414 692.401V707.181H698.794L698.614 705.721C698.268 706.254 697.834 706.674 697.314 706.981C696.794 707.274 696.214 707.421 695.574 707.421C694.321 707.421 693.341 706.928 692.634 705.941C691.941 704.954 691.594 703.628 691.594 701.961C691.594 700.881 691.761 699.921 692.094 699.081C692.428 698.241 692.908 697.588 693.534 697.121C694.161 696.641 694.894 696.401 695.734 696.401C696.814 696.401 697.761 696.834 698.574 697.701V692.181L700.414 692.401ZM695.974 705.961C696.534 705.961 697.014 705.834 697.414 705.581C697.814 705.314 698.201 704.921 698.574 704.401V699.241C698.228 698.788 697.854 698.448 697.454 698.221C697.068 697.981 696.628 697.861 696.134 697.861C695.321 697.861 694.688 698.201 694.234 698.881C693.794 699.561 693.574 700.574 693.574 701.921C693.574 703.281 693.781 704.294 694.194 704.961C694.608 705.628 695.201 705.961 695.974 705.961ZM712.197 701.601C712.197 701.908 712.184 702.221 712.157 702.541H705.437C705.517 703.701 705.811 704.554 706.317 705.101C706.824 705.648 707.477 705.921 708.277 705.921C708.784 705.921 709.251 705.848 709.677 705.701C710.104 705.554 710.551 705.321 711.017 705.001L711.817 706.101C710.697 706.981 709.471 707.421 708.137 707.421C706.671 707.421 705.524 706.941 704.697 705.981C703.884 705.021 703.477 703.701 703.477 702.021C703.477 700.928 703.651 699.961 703.997 699.121C704.357 698.268 704.864 697.601 705.517 697.121C706.184 696.641 706.964 696.401 707.857 696.401C709.257 696.401 710.331 696.861 711.077 697.781C711.824 698.701 712.197 699.974 712.197 701.601ZM710.377 701.061C710.377 700.021 710.171 699.228 709.757 698.681C709.344 698.134 708.724 697.861 707.897 697.861C706.391 697.861 705.571 698.968 705.437 701.181H710.377V701.061ZM720.126 696.401C721.086 696.401 721.832 696.688 722.366 697.261C722.912 697.834 723.186 698.621 723.186 699.621V707.181H721.346V699.881C721.346 699.134 721.206 698.608 720.926 698.301C720.646 697.994 720.232 697.841 719.686 697.841C719.126 697.841 718.632 698.001 718.206 698.321C717.779 698.641 717.379 699.101 717.006 699.701V707.181H715.166V696.641H716.746L716.906 698.201C717.279 697.641 717.739 697.201 718.286 696.881C718.846 696.561 719.459 696.401 720.126 696.401ZM732.235 706.701C731.541 707.181 730.755 707.421 729.875 707.421C728.981 707.421 728.281 707.168 727.775 706.661C727.281 706.141 727.035 705.394 727.035 704.421V698.061H725.195V696.641H727.035V694.261L728.875 694.041V696.641H731.375L731.175 698.061H728.875V704.341C728.875 704.888 728.968 705.288 729.155 705.541C729.355 705.781 729.681 705.901 730.135 705.901C730.548 705.901 731.015 705.761 731.535 705.481L732.235 706.701ZM746.594 704.721C746.594 705.148 746.667 705.468 746.814 705.681C746.961 705.881 747.181 706.034 747.474 706.141L747.054 707.421C746.507 707.354 746.067 707.201 745.734 706.961C745.401 706.721 745.154 706.348 744.994 705.841C744.287 706.894 743.241 707.421 741.854 707.421C740.814 707.421 739.994 707.128 739.394 706.541C738.794 705.954 738.494 705.188 738.494 704.241C738.494 703.121 738.894 702.261 739.694 701.661C740.507 701.061 741.654 700.761 743.134 700.761H744.754V699.981C744.754 699.234 744.574 698.701 744.214 698.381C743.854 698.061 743.301 697.901 742.554 697.901C741.781 697.901 740.834 698.088 739.714 698.461L739.254 697.121C740.561 696.641 741.774 696.401 742.894 696.401C744.134 696.401 745.061 696.708 745.674 697.321C746.287 697.921 746.594 698.781 746.594 699.901V704.721ZM742.274 706.041C743.327 706.041 744.154 705.494 744.754 704.401V701.981H743.374C741.427 701.981 740.454 702.701 740.454 704.141C740.454 704.768 740.607 705.241 740.914 705.561C741.221 705.881 741.674 706.041 742.274 706.041ZM758.563 692.401V707.181H756.943L756.763 705.721C756.416 706.254 755.983 706.674 755.463 706.981C754.943 707.274 754.363 707.421 753.723 707.421C752.47 707.421 751.49 706.928 750.783 705.941C750.09 704.954 749.743 703.628 749.743 701.961C749.743 700.881 749.91 699.921 750.243 699.081C750.576 698.241 751.056 697.588 751.683 697.121C752.31 696.641 753.043 696.401 753.883 696.401C754.963 696.401 755.91 696.834 756.723 697.701V692.181L758.563 692.401ZM754.123 705.961C754.683 705.961 755.163 705.834 755.563 705.581C755.963 705.314 756.35 704.921 756.723 704.401V699.241C756.376 698.788 756.003 698.448 755.603 698.221C755.216 697.981 754.776 697.861 754.283 697.861C753.47 697.861 752.836 698.201 752.383 698.881C751.943 699.561 751.723 700.574 751.723 701.921C751.723 703.281 751.93 704.294 752.343 704.961C752.756 705.628 753.35 705.961 754.123 705.961ZM770.546 692.401V707.181H768.926L768.746 705.721C768.399 706.254 767.966 706.674 767.446 706.981C766.926 707.274 766.346 707.421 765.706 707.421C764.453 707.421 763.473 706.928 762.766 705.941C762.073 704.954 761.726 703.628 761.726 701.961C761.726 700.881 761.893 699.921 762.226 699.081C762.559 698.241 763.039 697.588 763.666 697.121C764.293 696.641 765.026 696.401 765.866 696.401C766.946 696.401 767.893 696.834 768.706 697.701V692.181L770.546 692.401ZM766.106 705.961C766.666 705.961 767.146 705.834 767.546 705.581C767.946 705.314 768.333 704.921 768.706 704.401V699.241C768.359 698.788 767.986 698.448 767.586 698.221C767.199 697.981 766.759 697.861 766.266 697.861C765.453 697.861 764.819 698.201 764.366 698.881C763.926 699.561 763.706 700.574 763.706 701.921C763.706 703.281 763.913 704.294 764.326 704.961C764.739 705.628 765.333 705.961 766.106 705.961ZM781.532 696.641V707.181H779.692V696.641H781.532ZM780.592 691.581C780.979 691.581 781.292 691.701 781.532 691.941C781.772 692.181 781.892 692.481 781.892 692.841C781.892 693.201 781.772 693.501 781.532 693.741C781.292 693.968 780.979 694.081 780.592 694.081C780.219 694.081 779.912 693.968 779.672 693.741C779.432 693.501 779.312 693.201 779.312 692.841C779.312 692.481 779.432 692.181 779.672 691.941C779.912 691.701 780.219 691.581 780.592 691.581ZM788.227 696.401C788.947 696.401 789.593 696.501 790.167 696.701C790.74 696.901 791.287 697.201 791.807 697.601L791.027 698.761C790.547 698.454 790.087 698.228 789.647 698.081C789.22 697.934 788.767 697.861 788.287 697.861C787.687 697.861 787.213 697.988 786.867 698.241C786.52 698.481 786.347 698.814 786.347 699.241C786.347 699.668 786.507 700.001 786.827 700.241C787.16 700.481 787.753 700.714 788.607 700.941C789.78 701.234 790.653 701.634 791.227 702.141C791.813 702.648 792.107 703.341 792.107 704.221C792.107 705.261 791.7 706.054 790.887 706.601C790.087 707.148 789.107 707.421 787.947 707.421C786.347 707.421 785.02 706.961 783.967 706.041L784.947 704.921C785.84 705.601 786.827 705.941 787.907 705.941C788.6 705.941 789.147 705.801 789.547 705.521C789.96 705.228 790.167 704.834 790.167 704.341C790.167 703.981 790.093 703.694 789.947 703.481C789.8 703.254 789.547 703.061 789.187 702.901C788.827 702.728 788.3 702.548 787.607 702.361C786.487 702.068 785.673 701.674 785.167 701.181C784.673 700.688 784.427 700.061 784.427 699.301C784.427 698.754 784.587 698.261 784.907 697.821C785.24 697.368 785.693 697.021 786.267 696.781C786.853 696.528 787.507 696.401 788.227 696.401ZM808.556 697.121C808.156 697.254 807.716 697.341 807.236 697.381C806.756 697.421 806.169 697.441 805.476 697.441C806.716 698.001 807.336 698.888 807.336 700.101C807.336 701.154 806.976 702.014 806.256 702.681C805.536 703.348 804.556 703.681 803.316 703.681C802.836 703.681 802.389 703.614 801.976 703.481C801.816 703.588 801.689 703.734 801.596 703.921C801.502 704.094 801.456 704.274 801.456 704.461C801.456 705.034 801.916 705.321 802.836 705.321H804.516C805.222 705.321 805.849 705.448 806.396 705.701C806.942 705.954 807.362 706.301 807.656 706.741C807.962 707.181 808.116 707.681 808.116 708.241C808.116 709.268 807.696 710.054 806.856 710.601C806.016 711.161 804.789 711.441 803.176 711.441C802.042 711.441 801.142 711.321 800.476 711.081C799.822 710.854 799.356 710.508 799.076 710.041C798.796 709.574 798.656 708.974 798.656 708.241H800.316C800.316 708.668 800.396 709.001 800.556 709.241C800.716 709.494 801.002 709.681 801.416 709.801C801.829 709.934 802.416 710.001 803.176 710.001C804.282 710.001 805.069 709.861 805.536 709.581C806.016 709.314 806.256 708.908 806.256 708.361C806.256 707.868 806.069 707.494 805.696 707.241C805.322 706.988 804.802 706.861 804.136 706.861H802.476C801.582 706.861 800.902 706.674 800.436 706.301C799.982 705.914 799.756 705.434 799.756 704.861C799.756 704.514 799.856 704.181 800.056 703.861C800.256 703.541 800.542 703.254 800.916 703.001C800.302 702.681 799.849 702.288 799.556 701.821C799.276 701.341 799.136 700.761 799.136 700.081C799.136 699.374 799.309 698.741 799.656 698.181C800.016 697.621 800.502 697.188 801.116 696.881C801.742 696.561 802.436 696.401 803.196 696.401C804.022 696.414 804.716 696.388 805.276 696.321C805.836 696.241 806.296 696.141 806.656 696.021C807.029 695.888 807.482 695.701 808.016 695.461L808.556 697.121ZM803.196 697.721C802.502 697.721 801.962 697.941 801.576 698.381C801.202 698.808 801.016 699.374 801.016 700.081C801.016 700.801 801.209 701.381 801.596 701.821C801.982 702.248 802.529 702.461 803.236 702.461C803.956 702.461 804.502 702.254 804.876 701.841C805.262 701.414 805.456 700.821 805.456 700.061C805.456 698.501 804.702 697.721 803.196 697.721ZM814.124 696.401C815.604 696.401 816.75 696.894 817.564 697.881C818.39 698.868 818.804 700.208 818.804 701.901C818.804 702.994 818.617 703.961 818.244 704.801C817.87 705.628 817.33 706.274 816.624 706.741C815.917 707.194 815.077 707.421 814.104 707.421C812.624 707.421 811.47 706.928 810.644 705.941C809.817 704.954 809.404 703.614 809.404 701.921C809.404 700.828 809.59 699.868 809.964 699.041C810.337 698.201 810.877 697.554 811.584 697.101C812.29 696.634 813.137 696.401 814.124 696.401ZM814.124 697.881C812.297 697.881 811.384 699.228 811.384 701.921C811.384 704.601 812.29 705.941 814.104 705.941C815.917 705.941 816.824 704.594 816.824 701.901C816.824 699.221 815.924 697.881 814.124 697.881ZM823.713 696.641V707.181H821.873V696.641H823.713ZM822.773 691.581C823.16 691.581 823.473 691.701 823.713 691.941C823.953 692.181 824.073 692.481 824.073 692.841C824.073 693.201 823.953 693.501 823.713 693.741C823.473 693.968 823.16 694.081 822.773 694.081C822.4 694.081 822.093 693.968 821.853 693.741C821.613 693.501 821.493 693.201 821.493 692.841C821.493 692.481 821.613 692.181 821.853 691.941C822.093 691.701 822.4 691.581 822.773 691.581ZM832.508 696.401C833.468 696.401 834.215 696.688 834.748 697.261C835.295 697.834 835.568 698.621 835.568 699.621V707.181H833.728V699.881C833.728 699.134 833.588 698.608 833.308 698.301C833.028 697.994 832.615 697.841 832.068 697.841C831.508 697.841 831.015 698.001 830.588 698.321C830.161 698.641 829.761 699.101 829.388 699.701V707.181H827.548V696.641H829.128L829.288 698.201C829.661 697.641 830.121 697.201 830.668 696.881C831.228 696.561 831.841 696.401 832.508 696.401ZM847.797 697.121C847.397 697.254 846.957 697.341 846.477 697.381C845.997 697.421 845.41 697.441 844.717 697.441C845.957 698.001 846.577 698.888 846.577 700.101C846.577 701.154 846.217 702.014 845.497 702.681C844.777 703.348 843.797 703.681 842.557 703.681C842.077 703.681 841.63 703.614 841.217 703.481C841.057 703.588 840.93 703.734 840.837 703.921C840.743 704.094 840.697 704.274 840.697 704.461C840.697 705.034 841.157 705.321 842.077 705.321H843.757C844.463 705.321 845.09 705.448 845.637 705.701C846.183 705.954 846.603 706.301 846.897 706.741C847.203 707.181 847.357 707.681 847.357 708.241C847.357 709.268 846.937 710.054 846.097 710.601C845.257 711.161 844.03 711.441 842.417 711.441C841.283 711.441 840.383 711.321 839.717 711.081C839.063 710.854 838.597 710.508 838.317 710.041C838.037 709.574 837.897 708.974 837.897 708.241H839.557C839.557 708.668 839.637 709.001 839.797 709.241C839.957 709.494 840.243 709.681 840.657 709.801C841.07 709.934 841.657 710.001 842.417 710.001C843.523 710.001 844.31 709.861 844.777 709.581C845.257 709.314 845.497 708.908 845.497 708.361C845.497 707.868 845.31 707.494 844.937 707.241C844.563 706.988 844.043 706.861 843.377 706.861H841.717C840.823 706.861 840.143 706.674 839.677 706.301C839.223 705.914 838.997 705.434 838.997 704.861C838.997 704.514 839.097 704.181 839.297 703.861C839.497 703.541 839.783 703.254 840.157 703.001C839.543 702.681 839.09 702.288 838.797 701.821C838.517 701.341 838.377 700.761 838.377 700.081C838.377 699.374 838.55 698.741 838.897 698.181C839.257 697.621 839.743 697.188 840.357 696.881C840.983 696.561 841.677 696.401 842.437 696.401C843.263 696.414 843.957 696.388 844.517 696.321C845.077 696.241 845.537 696.141 845.897 696.021C846.27 695.888 846.723 695.701 847.257 695.461L847.797 697.121ZM842.437 697.721C841.743 697.721 841.203 697.941 840.817 698.381C840.443 698.808 840.257 699.374 840.257 700.081C840.257 700.801 840.45 701.381 840.837 701.821C841.223 702.248 841.77 702.461 842.477 702.461C843.197 702.461 843.743 702.254 844.117 701.841C844.503 701.414 844.697 700.821 844.697 700.061C844.697 698.501 843.943 697.721 842.437 697.721ZM860.36 706.701C859.667 707.181 858.88 707.421 858 707.421C857.107 707.421 856.407 707.168 855.9 706.661C855.407 706.141 855.16 705.394 855.16 704.421V698.061H853.32V696.641H855.16V694.261L857 694.041V696.641H859.5L859.3 698.061H857V704.341C857 704.888 857.094 705.288 857.28 705.541C857.48 705.781 857.807 705.901 858.26 705.901C858.674 705.901 859.14 705.761 859.66 705.481L860.36 706.701ZM865.964 696.401C867.444 696.401 868.591 696.894 869.404 697.881C870.231 698.868 870.644 700.208 870.644 701.901C870.644 702.994 870.457 703.961 870.084 704.801C869.711 705.628 869.171 706.274 868.464 706.741C867.757 707.194 866.917 707.421 865.944 707.421C864.464 707.421 863.311 706.928 862.484 705.941C861.657 704.954 861.244 703.614 861.244 701.921C861.244 700.828 861.431 699.868 861.804 699.041C862.177 698.201 862.717 697.554 863.424 697.101C864.131 696.634 864.977 696.401 865.964 696.401ZM865.964 697.881C864.137 697.881 863.224 699.228 863.224 701.921C863.224 704.601 864.131 705.941 865.944 705.941C867.757 705.941 868.664 704.594 868.664 701.901C868.664 699.221 867.764 697.881 865.964 697.881ZM883.857 696.401C885.057 696.401 886.01 696.888 886.717 697.861C887.423 698.821 887.777 700.168 887.777 701.901C887.777 702.994 887.61 703.961 887.277 704.801C886.943 705.628 886.463 706.274 885.837 706.741C885.21 707.194 884.477 707.421 883.637 707.421C882.53 707.421 881.597 706.954 880.837 706.021L880.657 707.181H879.037V692.401L880.877 692.181V697.961C881.637 696.921 882.63 696.401 883.857 696.401ZM883.197 705.961C884.01 705.961 884.643 705.634 885.097 704.981C885.563 704.314 885.797 703.288 885.797 701.901C885.797 700.474 885.583 699.448 885.157 698.821C884.73 698.181 884.123 697.861 883.337 697.861C882.403 697.861 881.583 698.408 880.877 699.501V704.541C881.157 704.981 881.497 705.328 881.897 705.581C882.31 705.834 882.743 705.961 883.197 705.961ZM898.902 701.601C898.902 701.908 898.888 702.221 898.862 702.541H892.142C892.222 703.701 892.515 704.554 893.022 705.101C893.528 705.648 894.182 705.921 894.982 705.921C895.488 705.921 895.955 705.848 896.382 705.701C896.808 705.554 897.255 705.321 897.722 705.001L898.522 706.101C897.402 706.981 896.175 707.421 894.842 707.421C893.375 707.421 892.228 706.941 891.402 705.981C890.588 705.021 890.182 703.701 890.182 702.021C890.182 700.928 890.355 699.961 890.702 699.121C891.062 698.268 891.568 697.601 892.222 697.121C892.888 696.641 893.668 696.401 894.562 696.401C895.962 696.401 897.035 696.861 897.782 697.781C898.528 698.701 898.902 699.974 898.902 701.601ZM897.082 701.061C897.082 700.021 896.875 699.228 896.462 698.681C896.048 698.134 895.428 697.861 894.602 697.861C893.095 697.861 892.275 698.968 892.142 701.181H897.082V701.061ZM910.053 696.401C910.773 696.401 911.42 696.501 911.993 696.701C912.566 696.901 913.113 697.201 913.633 697.601L912.853 698.761C912.373 698.454 911.913 698.228 911.473 698.081C911.046 697.934 910.593 697.861 910.113 697.861C909.513 697.861 909.04 697.988 908.693 698.241C908.346 698.481 908.173 698.814 908.173 699.241C908.173 699.668 908.333 700.001 908.653 700.241C908.986 700.481 909.58 700.714 910.433 700.941C911.606 701.234 912.48 701.634 913.053 702.141C913.64 702.648 913.933 703.341 913.933 704.221C913.933 705.261 913.526 706.054 912.713 706.601C911.913 707.148 910.933 707.421 909.773 707.421C908.173 707.421 906.846 706.961 905.793 706.041L906.773 704.921C907.666 705.601 908.653 705.941 909.733 705.941C910.426 705.941 910.973 705.801 911.373 705.521C911.786 705.228 911.993 704.834 911.993 704.341C911.993 703.981 911.92 703.694 911.773 703.481C911.626 703.254 911.373 703.061 911.013 702.901C910.653 702.728 910.126 702.548 909.433 702.361C908.313 702.068 907.5 701.674 906.993 701.181C906.5 700.688 906.253 700.061 906.253 699.301C906.253 698.754 906.413 698.261 906.733 697.821C907.066 697.368 907.52 697.021 908.093 696.781C908.68 696.528 909.333 696.401 910.053 696.401ZM921.519 696.401C922.479 696.401 923.226 696.688 923.759 697.261C924.306 697.834 924.579 698.621 924.579 699.621V707.181H922.739V699.881C922.739 699.134 922.592 698.608 922.299 698.301C922.019 697.994 921.606 697.841 921.059 697.841C920.512 697.841 920.026 698.001 919.599 698.321C919.172 698.641 918.772 699.094 918.399 699.681V707.181H916.559V692.421L918.399 692.221V698.101C919.226 696.968 920.266 696.401 921.519 696.401ZM932.268 696.401C933.748 696.401 934.894 696.894 935.708 697.881C936.534 698.868 936.948 700.208 936.948 701.901C936.948 702.994 936.761 703.961 936.388 704.801C936.014 705.628 935.474 706.274 934.768 706.741C934.061 707.194 933.221 707.421 932.248 707.421C930.768 707.421 929.614 706.928 928.788 705.941C927.961 704.954 927.548 703.614 927.548 701.921C927.548 700.828 927.734 699.868 928.108 699.041C928.481 698.201 929.021 697.554 929.728 697.101C930.434 696.634 931.281 696.401 932.268 696.401ZM932.268 697.881C930.441 697.881 929.528 699.228 929.528 701.921C929.528 704.601 930.434 705.941 932.248 705.941C934.061 705.941 934.968 704.594 934.968 701.901C934.968 699.221 934.068 697.881 932.268 697.881ZM952.057 696.641L949.657 707.181H947.157L945.317 698.301L943.417 707.181H940.977L938.517 696.641H940.357L942.257 705.901L944.337 696.641H946.397L948.377 705.901L950.297 696.641H952.057ZM956.223 696.641V707.181H954.383V696.641H956.223ZM955.283 691.581C955.67 691.581 955.983 691.701 956.223 691.941C956.463 692.181 956.583 692.481 956.583 692.841C956.583 693.201 956.463 693.501 956.223 693.741C955.983 693.968 955.67 694.081 955.283 694.081C954.91 694.081 954.603 693.968 954.363 693.741C954.123 693.501 954.003 693.201 954.003 692.841C954.003 692.481 954.123 692.181 954.363 691.941C954.603 691.701 954.91 691.581 955.283 691.581ZM965.018 696.401C965.978 696.401 966.724 696.688 967.258 697.261C967.804 697.834 968.078 698.621 968.078 699.621V707.181H966.238V699.881C966.238 699.134 966.098 698.608 965.818 698.301C965.538 697.994 965.124 697.841 964.578 697.841C964.018 697.841 963.524 698.001 963.098 698.321C962.671 698.641 962.271 699.101 961.898 699.701V707.181H960.058V696.641H961.638L961.798 698.201C962.171 697.641 962.631 697.201 963.178 696.881C963.738 696.561 964.351 696.401 965.018 696.401ZM980.307 697.121C979.907 697.254 979.467 697.341 978.987 697.381C978.507 697.421 977.92 697.441 977.227 697.441C978.467 698.001 979.087 698.888 979.087 700.101C979.087 701.154 978.727 702.014 978.007 702.681C977.287 703.348 976.307 703.681 975.067 703.681C974.587 703.681 974.14 703.614 973.727 703.481C973.567 703.588 973.44 703.734 973.347 703.921C973.253 704.094 973.207 704.274 973.207 704.461C973.207 705.034 973.667 705.321 974.587 705.321H976.267C976.973 705.321 977.6 705.448 978.147 705.701C978.693 705.954 979.113 706.301 979.407 706.741C979.713 707.181 979.867 707.681 979.867 708.241C979.867 709.268 979.447 710.054 978.607 710.601C977.767 711.161 976.54 711.441 974.927 711.441C973.793 711.441 972.893 711.321 972.227 711.081C971.573 710.854 971.107 710.508 970.827 710.041C970.547 709.574 970.407 708.974 970.407 708.241H972.067C972.067 708.668 972.147 709.001 972.307 709.241C972.467 709.494 972.753 709.681 973.167 709.801C973.58 709.934 974.167 710.001 974.927 710.001C976.033 710.001 976.82 709.861 977.287 709.581C977.767 709.314 978.007 708.908 978.007 708.361C978.007 707.868 977.82 707.494 977.447 707.241C977.073 706.988 976.553 706.861 975.887 706.861H974.227C973.333 706.861 972.653 706.674 972.187 706.301C971.733 705.914 971.507 705.434 971.507 704.861C971.507 704.514 971.607 704.181 971.807 703.861C972.007 703.541 972.293 703.254 972.667 703.001C972.053 702.681 971.6 702.288 971.307 701.821C971.027 701.341 970.887 700.761 970.887 700.081C970.887 699.374 971.06 698.741 971.407 698.181C971.767 697.621 972.253 697.188 972.867 696.881C973.493 696.561 974.187 696.401 974.947 696.401C975.773 696.414 976.467 696.388 977.027 696.321C977.587 696.241 978.047 696.141 978.407 696.021C978.78 695.888 979.233 695.701 979.767 695.461L980.307 697.121ZM974.947 697.721C974.253 697.721 973.713 697.941 973.327 698.381C972.953 698.808 972.767 699.374 972.767 700.081C972.767 700.801 972.96 701.381 973.347 701.821C973.733 702.248 974.28 702.461 974.987 702.461C975.707 702.461 976.253 702.254 976.627 701.841C977.013 701.414 977.207 700.821 977.207 700.061C977.207 698.501 976.453 697.721 974.947 697.721ZM992.51 696.401C993.47 696.401 994.217 696.688 994.75 697.261C995.297 697.834 995.57 698.621 995.57 699.621V707.181H993.73V699.881C993.73 699.134 993.583 698.608 993.29 698.301C993.01 697.994 992.597 697.841 992.05 697.841C991.503 697.841 991.017 698.001 990.59 698.321C990.163 698.641 989.763 699.094 989.39 699.681V707.181H987.55V692.421L989.39 692.221V698.101C990.217 696.968 991.257 696.401 992.51 696.401ZM1007.26 701.601C1007.26 701.908 1007.25 702.221 1007.22 702.541H1000.5C1000.58 703.701 1000.87 704.554 1001.38 705.101C1001.89 705.648 1002.54 705.921 1003.34 705.921C1003.85 705.921 1004.31 705.848 1004.74 705.701C1005.17 705.554 1005.61 705.321 1006.08 705.001L1006.88 706.101C1005.76 706.981 1004.53 707.421 1003.2 707.421C1001.73 707.421 1000.59 706.941 999.759 705.981C998.946 705.021 998.539 703.701 998.539 702.021C998.539 700.928 998.712 699.961 999.059 699.121C999.419 698.268 999.926 697.601 1000.58 697.121C1001.25 696.641 1002.03 696.401 1002.92 696.401C1004.32 696.401 1005.39 696.861 1006.14 697.781C1006.89 698.701 1007.26 699.974 1007.26 701.601ZM1005.44 701.061C1005.44 700.021 1005.23 699.228 1004.82 698.681C1004.41 698.134 1003.79 697.861 1002.96 697.861C1001.45 697.861 1000.63 698.968 1000.5 701.181H1005.44V701.061ZM1014.81 696.401C1015.18 696.401 1015.53 696.441 1015.85 696.521L1015.51 698.321C1015.19 698.241 1014.88 698.201 1014.59 698.201C1013.93 698.201 1013.41 698.441 1013.01 698.921C1012.61 699.401 1012.29 700.148 1012.07 701.161V707.181H1010.23V696.641H1011.81L1011.99 698.781C1012.27 697.994 1012.65 697.401 1013.13 697.001C1013.61 696.601 1014.17 696.401 1014.81 696.401ZM1025.33 701.601C1025.33 701.908 1025.31 702.221 1025.29 702.541H1018.57C1018.65 703.701 1018.94 704.554 1019.45 705.101C1019.95 705.648 1020.61 705.921 1021.41 705.921C1021.91 705.921 1022.38 705.848 1022.81 705.701C1023.23 705.554 1023.68 705.321 1024.15 705.001L1024.95 706.101C1023.83 706.981 1022.6 707.421 1021.27 707.421C1019.8 707.421 1018.65 706.941 1017.83 705.981C1017.01 705.021 1016.61 703.701 1016.61 702.021C1016.61 700.928 1016.78 699.961 1017.13 699.121C1017.49 698.268 1017.99 697.601 1018.65 697.121C1019.31 696.641 1020.09 696.401 1020.99 696.401C1022.39 696.401 1023.46 696.861 1024.21 697.781C1024.95 698.701 1025.33 699.974 1025.33 701.601ZM1023.51 701.061C1023.51 700.021 1023.3 699.228 1022.89 698.681C1022.47 698.134 1021.85 697.861 1021.03 697.861C1019.52 697.861 1018.7 698.968 1018.57 701.181H1023.51V701.061ZM1045.66 696.641L1043.26 707.181H1040.76L1038.92 698.301L1037.02 707.181H1034.58L1032.12 696.641H1033.96L1035.86 705.901L1037.94 696.641H1040L1041.98 705.901L1043.9 696.641H1045.66ZM1052.94 696.401C1053.9 696.401 1054.65 696.688 1055.18 697.261C1055.73 697.834 1056 698.621 1056 699.621V707.181H1054.16V699.881C1054.16 699.134 1054.02 698.608 1053.72 698.301C1053.44 697.994 1053.03 697.841 1052.48 697.841C1051.94 697.841 1051.45 698.001 1051.02 698.321C1050.6 698.641 1050.2 699.094 1049.82 699.681V707.181H1047.98V692.421L1049.82 692.221V698.101C1050.65 696.968 1051.69 696.401 1052.94 696.401ZM1067.69 701.601C1067.69 701.908 1067.68 702.221 1067.65 702.541H1060.93C1061.01 703.701 1061.31 704.554 1061.81 705.101C1062.32 705.648 1062.97 705.921 1063.77 705.921C1064.28 705.921 1064.75 705.848 1065.17 705.701C1065.6 705.554 1066.05 705.321 1066.51 705.001L1067.31 706.101C1066.19 706.981 1064.97 707.421 1063.63 707.421C1062.17 707.421 1061.02 706.941 1060.19 705.981C1059.38 705.021 1058.97 703.701 1058.97 702.021C1058.97 700.928 1059.15 699.961 1059.49 699.121C1059.85 698.268 1060.36 697.601 1061.01 697.121C1061.68 696.641 1062.46 696.401 1063.35 696.401C1064.75 696.401 1065.83 696.861 1066.57 697.781C1067.32 698.701 1067.69 699.974 1067.69 701.601ZM1065.87 701.061C1065.87 700.021 1065.67 699.228 1065.25 698.681C1064.84 698.134 1064.22 697.861 1063.39 697.861C1061.89 697.861 1061.07 698.968 1060.93 701.181H1065.87V701.061ZM1075.24 696.401C1075.61 696.401 1075.96 696.441 1076.28 696.521L1075.94 698.321C1075.62 698.241 1075.31 698.201 1075.02 698.201C1074.37 698.201 1073.84 698.441 1073.44 698.921C1073.04 699.401 1072.73 700.148 1072.5 701.161V707.181H1070.66V696.641H1072.24L1072.42 698.781C1072.7 697.994 1073.08 697.401 1073.56 697.001C1074.04 696.601 1074.6 696.401 1075.24 696.401ZM1085.76 701.601C1085.76 701.908 1085.75 702.221 1085.72 702.541H1079C1079.08 703.701 1079.37 704.554 1079.88 705.101C1080.39 705.648 1081.04 705.921 1081.84 705.921C1082.35 705.921 1082.81 705.848 1083.24 705.701C1083.67 705.554 1084.11 705.321 1084.58 705.001L1085.38 706.101C1084.26 706.981 1083.03 707.421 1081.7 707.421C1080.23 707.421 1079.09 706.941 1078.26 705.981C1077.45 705.021 1077.04 703.701 1077.04 702.021C1077.04 700.928 1077.21 699.961 1077.56 699.121C1077.92 698.268 1078.43 697.601 1079.08 697.121C1079.75 696.641 1080.53 696.401 1081.42 696.401C1082.82 696.401 1083.89 696.861 1084.64 697.781C1085.39 698.701 1085.76 699.974 1085.76 701.601ZM1083.94 701.061C1083.94 700.021 1083.73 699.228 1083.32 698.681C1082.91 698.134 1082.29 697.861 1081.46 697.861C1079.95 697.861 1079.13 698.968 1079 701.181H1083.94V701.061ZM694.3 731.241C693.887 732.468 693.307 733.434 692.56 734.141C691.827 734.861 690.774 735.294 689.4 735.441L689.2 734.001C689.894 733.881 690.447 733.708 690.86 733.481C691.274 733.254 691.6 732.961 691.84 732.601C692.094 732.254 692.327 731.781 692.54 731.181H691.92L688.38 720.641H690.34L693.16 729.841L695.92 720.641H697.82L694.3 731.241ZM703.836 720.401C705.316 720.401 706.463 720.894 707.276 721.881C708.103 722.868 708.516 724.208 708.516 725.901C708.516 726.994 708.329 727.961 707.956 728.801C707.583 729.628 707.043 730.274 706.336 730.741C705.629 731.194 704.789 731.421 703.816 731.421C702.336 731.421 701.183 730.928 700.356 729.941C699.529 728.954 699.116 727.614 699.116 725.921C699.116 724.828 699.303 723.868 699.676 723.041C700.049 722.201 700.589 721.554 701.296 721.101C702.003 720.634 702.849 720.401 703.836 720.401ZM703.836 721.881C702.009 721.881 701.096 723.228 701.096 725.921C701.096 728.601 702.003 729.941 703.816 729.941C705.629 729.941 706.536 728.594 706.536 725.901C706.536 723.221 705.636 721.881 703.836 721.881ZM719.426 731.181H717.846L717.706 729.541C717.306 730.194 716.846 730.674 716.326 730.981C715.806 731.274 715.172 731.421 714.426 731.421C713.506 731.421 712.786 731.141 712.266 730.581C711.746 730.021 711.486 729.228 711.486 728.201V720.641H713.326V728.001C713.326 728.721 713.452 729.234 713.706 729.541C713.959 729.834 714.372 729.981 714.946 729.981C715.972 729.981 716.852 729.374 717.586 728.161V720.641H719.426V731.181ZM735.679 728.721C735.679 729.148 735.753 729.468 735.899 729.681C736.046 729.881 736.266 730.034 736.559 730.141L736.139 731.421C735.593 731.354 735.153 731.201 734.819 730.961C734.486 730.721 734.239 730.348 734.079 729.841C733.373 730.894 732.326 731.421 730.939 731.421C729.899 731.421 729.079 731.128 728.479 730.541C727.879 729.954 727.579 729.188 727.579 728.241C727.579 727.121 727.979 726.261 728.779 725.661C729.593 725.061 730.739 724.761 732.219 724.761H733.839V723.981C733.839 723.234 733.659 722.701 733.299 722.381C732.939 722.061 732.386 721.901 731.639 721.901C730.866 721.901 729.919 722.088 728.799 722.461L728.339 721.121C729.646 720.641 730.859 720.401 731.979 720.401C733.219 720.401 734.146 720.708 734.759 721.321C735.373 721.921 735.679 722.781 735.679 723.901V728.721ZM731.359 730.041C732.413 730.041 733.239 729.494 733.839 728.401V725.981H732.459C730.513 725.981 729.539 726.701 729.539 728.141C729.539 728.768 729.693 729.241 729.999 729.561C730.306 729.881 730.759 730.041 731.359 730.041ZM747.648 716.401V731.181H746.028L745.848 729.721C745.501 730.254 745.068 730.674 744.548 730.981C744.028 731.274 743.448 731.421 742.808 731.421C741.555 731.421 740.575 730.928 739.868 729.941C739.175 728.954 738.828 727.628 738.828 725.961C738.828 724.881 738.995 723.921 739.328 723.081C739.661 722.241 740.141 721.588 740.768 721.121C741.395 720.641 742.128 720.401 742.968 720.401C744.048 720.401 744.995 720.834 745.808 721.701V716.181L747.648 716.401ZM743.208 729.961C743.768 729.961 744.248 729.834 744.648 729.581C745.048 729.314 745.435 728.921 745.808 728.401V723.241C745.461 722.788 745.088 722.448 744.688 722.221C744.301 721.981 743.861 721.861 743.368 721.861C742.555 721.861 741.921 722.201 741.468 722.881C741.028 723.561 740.808 724.574 740.808 725.921C740.808 727.281 741.015 728.294 741.428 728.961C741.841 729.628 742.435 729.961 743.208 729.961ZM759.631 716.401V731.181H758.011L757.831 729.721C757.485 730.254 757.051 730.674 756.531 730.981C756.011 731.274 755.431 731.421 754.791 731.421C753.538 731.421 752.558 730.928 751.851 729.941C751.158 728.954 750.811 727.628 750.811 725.961C750.811 724.881 750.978 723.921 751.311 723.081C751.645 722.241 752.125 721.588 752.751 721.121C753.378 720.641 754.111 720.401 754.951 720.401C756.031 720.401 756.978 720.834 757.791 721.701V716.181L759.631 716.401ZM755.191 729.961C755.751 729.961 756.231 729.834 756.631 729.581C757.031 729.314 757.418 728.921 757.791 728.401V723.241C757.445 722.788 757.071 722.448 756.671 722.221C756.285 721.981 755.845 721.861 755.351 721.861C754.538 721.861 753.905 722.201 753.451 722.881C753.011 723.561 752.791 724.574 752.791 725.921C752.791 727.281 752.998 728.294 753.411 728.961C753.825 729.628 754.418 729.961 755.191 729.961ZM771.637 720.401C772.357 720.401 773.004 720.501 773.577 720.701C774.151 720.901 774.697 721.201 775.217 721.601L774.437 722.761C773.957 722.454 773.497 722.228 773.057 722.081C772.631 721.934 772.177 721.861 771.697 721.861C771.097 721.861 770.624 721.988 770.277 722.241C769.931 722.481 769.757 722.814 769.757 723.241C769.757 723.668 769.917 724.001 770.237 724.241C770.571 724.481 771.164 724.714 772.017 724.941C773.191 725.234 774.064 725.634 774.637 726.141C775.224 726.648 775.517 727.341 775.517 728.221C775.517 729.261 775.111 730.054 774.297 730.601C773.497 731.148 772.517 731.421 771.357 731.421C769.757 731.421 768.431 730.961 767.377 730.041L768.357 728.921C769.251 729.601 770.237 729.941 771.317 729.941C772.011 729.941 772.557 729.801 772.957 729.521C773.371 729.228 773.577 728.834 773.577 728.341C773.577 727.981 773.504 727.694 773.357 727.481C773.211 727.254 772.957 727.061 772.597 726.901C772.237 726.728 771.711 726.548 771.017 726.361C769.897 726.068 769.084 725.674 768.577 725.181C768.084 724.688 767.837 724.061 767.837 723.301C767.837 722.754 767.997 722.261 768.317 721.821C768.651 721.368 769.104 721.021 769.677 720.781C770.264 720.528 770.917 720.401 771.637 720.401ZM783.463 730.701C782.77 731.181 781.983 731.421 781.103 731.421C780.21 731.421 779.51 731.168 779.003 730.661C778.51 730.141 778.263 729.394 778.263 728.421V722.061H776.423V720.641H778.263V718.261L780.103 718.041V720.641H782.603L782.403 722.061H780.103V728.341C780.103 728.888 780.197 729.288 780.383 729.541C780.583 729.781 780.91 729.901 781.363 729.901C781.777 729.901 782.243 729.761 782.763 729.481L783.463 730.701ZM793.24 731.181H791.66L791.52 729.541C791.12 730.194 790.66 730.674 790.14 730.981C789.62 731.274 788.987 731.421 788.24 731.421C787.32 731.421 786.6 731.141 786.08 730.581C785.56 730.021 785.3 729.228 785.3 728.201V720.641H787.14V728.001C787.14 728.721 787.267 729.234 787.52 729.541C787.773 729.834 788.187 729.981 788.76 729.981C789.787 729.981 790.667 729.374 791.4 728.161V720.641H793.24V731.181ZM805.23 716.401V731.181H803.61L803.43 729.721C803.084 730.254 802.65 730.674 802.13 730.981C801.61 731.274 801.03 731.421 800.39 731.421C799.137 731.421 798.157 730.928 797.45 729.941C796.757 728.954 796.41 727.628 796.41 725.961C796.41 724.881 796.577 723.921 796.91 723.081C797.244 722.241 797.724 721.588 798.35 721.121C798.977 720.641 799.71 720.401 800.55 720.401C801.63 720.401 802.577 720.834 803.39 721.701V716.181L805.23 716.401ZM800.79 729.961C801.35 729.961 801.83 729.834 802.23 729.581C802.63 729.314 803.017 728.921 803.39 728.401V723.241C803.044 722.788 802.67 722.448 802.27 722.221C801.884 721.981 801.444 721.861 800.95 721.861C800.137 721.861 799.504 722.201 799.05 722.881C798.61 723.561 798.39 724.574 798.39 725.921C798.39 727.281 798.597 728.294 799.01 728.961C799.424 729.628 800.017 729.961 800.79 729.961ZM817.014 725.601C817.014 725.908 817 726.221 816.974 726.541H810.254C810.334 727.701 810.627 728.554 811.134 729.101C811.64 729.648 812.294 729.921 813.094 729.921C813.6 729.921 814.067 729.848 814.494 729.701C814.92 729.554 815.367 729.321 815.834 729.001L816.634 730.101C815.514 730.981 814.287 731.421 812.954 731.421C811.487 731.421 810.34 730.941 809.514 729.981C808.7 729.021 808.294 727.701 808.294 726.021C808.294 724.928 808.467 723.961 808.814 723.121C809.174 722.268 809.68 721.601 810.334 721.121C811 720.641 811.78 720.401 812.674 720.401C814.074 720.401 815.147 720.861 815.894 721.781C816.64 722.701 817.014 723.974 817.014 725.601ZM815.194 725.061C815.194 724.021 814.987 723.228 814.574 722.681C814.16 722.134 813.54 721.861 812.714 721.861C811.207 721.861 810.387 722.968 810.254 725.181H815.194V725.061ZM824.942 720.401C825.902 720.401 826.649 720.688 827.182 721.261C827.729 721.834 828.002 722.621 828.002 723.621V731.181H826.162V723.881C826.162 723.134 826.022 722.608 825.742 722.301C825.462 721.994 825.049 721.841 824.502 721.841C823.942 721.841 823.449 722.001 823.022 722.321C822.595 722.641 822.195 723.101 821.822 723.701V731.181H819.982V720.641H821.562L821.722 722.201C822.095 721.641 822.555 721.201 823.102 720.881C823.662 720.561 824.275 720.401 824.942 720.401ZM837.051 730.701C836.357 731.181 835.571 731.421 834.691 731.421C833.797 731.421 833.097 731.168 832.591 730.661C832.097 730.141 831.851 729.394 831.851 728.421V722.061H830.011V720.641H831.851V718.261L833.691 718.041V720.641H836.191L835.991 722.061H833.691V728.341C833.691 728.888 833.784 729.288 833.971 729.541C834.171 729.781 834.497 729.901 834.951 729.901C835.364 729.901 835.831 729.761 836.351 729.481L837.051 730.701ZM849.63 730.701C848.937 731.181 848.15 731.421 847.27 731.421C846.377 731.421 845.677 731.168 845.17 730.661C844.677 730.141 844.43 729.394 844.43 728.421V722.061H842.59V720.641H844.43V718.261L846.27 718.041V720.641H848.77L848.57 722.061H846.27V728.341C846.27 728.888 846.364 729.288 846.55 729.541C846.75 729.781 847.077 729.901 847.53 729.901C847.944 729.901 848.41 729.761 848.93 729.481L849.63 730.701ZM855.234 720.401C856.714 720.401 857.861 720.894 858.674 721.881C859.501 722.868 859.914 724.208 859.914 725.901C859.914 726.994 859.727 727.961 859.354 728.801C858.981 729.628 858.441 730.274 857.734 730.741C857.027 731.194 856.187 731.421 855.214 731.421C853.734 731.421 852.581 730.928 851.754 729.941C850.927 728.954 850.514 727.614 850.514 725.921C850.514 724.828 850.701 723.868 851.074 723.041C851.447 722.201 851.987 721.554 852.694 721.101C853.401 720.634 854.247 720.401 855.234 720.401ZM855.234 721.881C853.407 721.881 852.494 723.228 852.494 725.921C852.494 728.601 853.401 729.941 855.214 729.941C857.027 729.941 857.934 728.594 857.934 725.901C857.934 723.221 857.034 721.881 855.234 721.881ZM873.627 730.701C872.933 731.181 872.147 731.421 871.267 731.421C870.373 731.421 869.673 731.168 869.167 730.661C868.673 730.141 868.427 729.394 868.427 728.421V722.061H866.587V720.641H868.427V718.261L870.267 718.041V720.641H872.767L872.567 722.061H870.267V728.341C870.267 728.888 870.36 729.288 870.547 729.541C870.747 729.781 871.073 729.901 871.527 729.901C871.94 729.901 872.407 729.761 872.927 729.481L873.627 730.701ZM880.523 720.401C881.483 720.401 882.23 720.688 882.763 721.261C883.31 721.834 883.583 722.621 883.583 723.621V731.181H881.743V723.881C881.743 723.134 881.596 722.608 881.303 722.301C881.023 721.994 880.61 721.841 880.063 721.841C879.516 721.841 879.03 722.001 878.603 722.321C878.176 722.641 877.776 723.094 877.403 723.681V731.181H875.563V716.421L877.403 716.221V722.101C878.23 720.968 879.27 720.401 880.523 720.401ZM895.272 725.601C895.272 725.908 895.259 726.221 895.232 726.541H888.512C888.592 727.701 888.885 728.554 889.392 729.101C889.899 729.648 890.552 729.921 891.352 729.921C891.859 729.921 892.325 729.848 892.752 729.701C893.179 729.554 893.625 729.321 894.092 729.001L894.892 730.101C893.772 730.981 892.545 731.421 891.212 731.421C889.745 731.421 888.599 730.941 887.772 729.981C886.959 729.021 886.552 727.701 886.552 726.021C886.552 724.928 886.725 723.961 887.072 723.121C887.432 722.268 887.939 721.601 888.592 721.121C889.259 720.641 890.039 720.401 890.932 720.401C892.332 720.401 893.405 720.861 894.152 721.781C894.899 722.701 895.272 723.974 895.272 725.601ZM893.452 725.061C893.452 724.021 893.245 723.228 892.832 722.681C892.419 722.134 891.799 721.861 890.972 721.861C889.465 721.861 888.645 722.968 888.512 725.181H893.452V725.061ZM905.663 731.421C904.983 731.421 904.443 731.221 904.043 730.821C903.657 730.408 903.463 729.834 903.463 729.101V716.401L905.303 716.181V729.061C905.303 729.354 905.35 729.568 905.443 729.701C905.55 729.834 905.723 729.901 905.963 729.901C906.217 729.901 906.443 729.861 906.643 729.781L907.123 731.061C906.683 731.301 906.197 731.421 905.663 731.421ZM911.293 720.641V731.181H909.453V720.641H911.293ZM910.353 715.581C910.739 715.581 911.053 715.701 911.293 715.941C911.533 716.181 911.653 716.481 911.653 716.841C911.653 717.201 911.533 717.501 911.293 717.741C911.053 717.968 910.739 718.081 910.353 718.081C909.979 718.081 909.673 717.968 909.433 717.741C909.193 717.501 909.073 717.201 909.073 716.841C909.073 716.481 909.193 716.181 909.433 715.941C909.673 715.701 909.979 715.581 910.353 715.581ZM917.987 720.401C918.707 720.401 919.354 720.501 919.927 720.701C920.501 720.901 921.047 721.201 921.567 721.601L920.787 722.761C920.307 722.454 919.847 722.228 919.407 722.081C918.981 721.934 918.527 721.861 918.047 721.861C917.447 721.861 916.974 721.988 916.627 722.241C916.281 722.481 916.107 722.814 916.107 723.241C916.107 723.668 916.267 724.001 916.587 724.241C916.921 724.481 917.514 724.714 918.367 724.941C919.541 725.234 920.414 725.634 920.987 726.141C921.574 726.648 921.867 727.341 921.867 728.221C921.867 729.261 921.461 730.054 920.647 730.601C919.847 731.148 918.867 731.421 917.707 731.421C916.107 731.421 914.781 730.961 913.727 730.041L914.707 728.921C915.601 729.601 916.587 729.941 917.667 729.941C918.361 729.941 918.907 729.801 919.307 729.521C919.721 729.228 919.927 728.834 919.927 728.341C919.927 727.981 919.854 727.694 919.707 727.481C919.561 727.254 919.307 727.061 918.947 726.901C918.587 726.728 918.061 726.548 917.367 726.361C916.247 726.068 915.434 725.674 914.927 725.181C914.434 724.688 914.187 724.061 914.187 723.301C914.187 722.754 914.347 722.261 914.667 721.821C915.001 721.368 915.454 721.021 916.027 720.781C916.614 720.528 917.267 720.401 917.987 720.401ZM929.813 730.701C929.12 731.181 928.333 731.421 927.453 731.421C926.56 731.421 925.86 731.168 925.353 730.661C924.86 730.141 924.613 729.394 924.613 728.421V722.061H922.773V720.641H924.613V718.261L926.453 718.041V720.641H928.953L928.753 722.061H926.453V728.341C926.453 728.888 926.546 729.288 926.733 729.541C926.933 729.781 927.26 729.901 927.713 729.901C928.126 729.901 928.593 729.761 929.113 729.481L929.813 730.701Z" fill="#061725"/>
</g>
<defs>
<filter id="filter0_d_1761_8177" x="0" y="0" width="1618" height="1094" filterUnits="userSpaceOnUse" color-interpolation-filters="sRGB">
<feFlood flood-opacity="0" result="BackgroundImageFix"/>
<feColorMatrix in="SourceAlpha" type="matrix" values="0 0 0 0 0 0 0 0 0 0 0 0 0 0 0 0 0 0 127 0" result="hardAlpha"/>
<feOffset/>
<feGaussianBlur stdDeviation="76.5"/>
<feComposite in2="hardAlpha" operator="out"/>
<feColorMatrix type="matrix" values="0 0 0 0 0 0 0 0 0 0 0 0 0 0 0 0 0 0 0.1 0"/>
<feBlend mode="normal" in2="BackgroundImageFix" result="effect1_dropShadow_1761_8177"/>
<feBlend mode="normal" in="SourceGraphic" in2="effect1_dropShadow_1761_8177" result="shape"/>
</filter>
<clipPath id="clip0_1761_8177">
<rect width="355.333" height="250" fill="white" transform="translate(631 350)"/>
</clipPath>
</defs>
</svg>
