<svg width="552" height="389" viewBox="0 0 552 389" fill="none" xmlns="http://www.w3.org/2000/svg">
<g clip-path="url(#clip0_142_2008)">
<path d="M422.624 384.377C415.557 377.342 411.265 366.229 412.39 355.411C413.516 344.592 420.489 334.647 429.533 332.349C438.577 330.052 448.887 336.411 451.634 346.819C453.146 326.753 454.888 305.846 463.945 288.758C472.145 273.285 486.347 262.214 501.74 260.233C517.132 258.253 533.339 265.733 542.939 280.045C552.538 294.358 554.889 315.164 548.165 331.596C543.212 343.7 534.087 352.709 524.527 360.037C493.632 383.52 456.579 393.069 420.184 386.928L422.624 384.377Z" fill="#F2F2F2"/>
<path d="M527.717 266.148C515.016 278.335 503.365 291.964 492.931 306.84C476.602 330.041 463.388 356.054 453.75 383.972C453.045 386.008 455.852 386.895 456.55 384.881C472.319 339.509 497.493 299.518 529.77 268.566C531.219 267.176 529.155 264.769 527.717 266.148Z" fill="white"/>
<path d="M177.698 382.465C187.404 372.803 193.3 357.54 191.754 342.68C190.208 327.821 180.631 314.161 168.209 311.006C155.786 307.85 141.626 316.585 137.852 330.88C135.776 303.32 133.383 274.604 120.944 251.133C109.682 229.881 90.1742 214.675 69.0325 211.954C47.8908 209.234 25.6313 219.509 12.4461 239.166C-0.739234 258.824 -3.9676 287.402 5.26704 309.971C12.0699 326.596 24.6031 338.969 37.7348 349.035C79.6294 381.149 131.6 394.543 181.05 385.97" fill="#F2F2F2"/>
<path d="M33.3527 220.078C50.7972 236.816 66.8007 255.537 81.1317 275.969C95.4649 296.38 108.084 318.381 118.811 341.662C124.807 354.722 130.194 368.158 134.946 381.909C135.915 384.706 132.059 385.924 131.101 383.158C122.683 358.914 112.268 335.7 100.006 313.85C87.803 292.079 73.8364 271.753 58.302 253.159C49.5157 242.647 40.2454 232.712 30.533 223.4C28.5423 221.49 31.3784 218.184 33.3527 220.078L33.3527 220.078Z" fill="white"/>
<path d="M396.235 387.922H164.648V108.005C164.648 48.4508 205.777 0 256.331 0H304.552C355.106 0 396.235 48.4508 396.235 108.005V387.922Z" fill="#F2F2F2"/>
<path d="M348.014 387.922H164.648V108.005C164.598 85.1854 170.732 62.9422 182.157 44.5144C182.578 43.8381 182.999 43.1706 183.432 42.5104C188.958 33.9716 195.535 26.4517 202.945 20.1988C203.363 19.84 203.784 19.4875 204.21 19.135C210.41 14.0803 217.117 9.94826 224.179 6.83282C224.598 6.64559 225.025 6.458 225.452 6.27807C231.838 3.59331 238.458 1.75427 245.189 0.794897C245.607 0.727739 246.035 0.675188 246.464 0.622635C253.024 -0.203639 259.64 -0.203639 266.2 0.622635C266.627 0.675188 267.055 0.727733 267.478 0.795615C274.207 1.75505 280.826 3.59387 287.21 6.2781C287.637 6.45803 288.064 6.64562 288.485 6.83321C295.459 9.90935 302.087 13.9797 308.221 18.9536C308.647 19.2985 309.074 19.651 309.494 20.0036C313.648 23.4962 317.549 27.3871 321.158 31.6367C324.053 35.0454 326.75 38.6788 329.232 42.5126C329.664 43.1706 330.084 43.8381 330.504 44.5133C341.93 62.9414 348.064 85.1849 348.014 108.005V387.922Z" fill="#CCCCCC"/>
<path d="M333.103 262.725C338.71 262.725 343.255 257.371 343.255 250.766C343.255 244.162 338.71 238.807 333.103 238.807C327.497 238.807 322.952 244.162 322.952 250.766C322.952 257.371 327.497 262.725 333.103 262.725Z" fill="#EC3237"/>
<path d="M377.263 379.538H369.484L365.783 344.193L377.264 344.194L377.263 379.538Z" fill="#FFB8B8"/>
<path d="M363.928 376.919H378.929V388.046H354.482C354.482 386.585 354.727 385.138 355.201 383.788C355.676 382.438 356.372 381.212 357.249 380.178C358.126 379.145 359.167 378.326 360.313 377.766C361.459 377.207 362.687 376.919 363.928 376.919Z" fill="#000B17"/>
<path d="M415.966 379.538H408.188L404.487 344.193L415.968 344.194L415.966 379.538Z" fill="#FFB8B8"/>
<path d="M402.631 376.919H417.633V388.046H393.186C393.186 386.585 393.43 385.138 393.905 383.788C394.379 382.438 395.075 381.212 395.952 380.178C396.829 379.145 397.871 378.326 399.017 377.766C400.163 377.207 401.391 376.919 402.631 376.919Z" fill="#000B17"/>
<path d="M338.241 253.136C337.682 252.164 337.31 251.06 337.151 249.901C336.993 248.742 337.053 247.557 337.325 246.428C337.598 245.299 338.078 244.254 338.731 243.367C339.383 242.48 340.193 241.772 341.103 241.294L367.546 155.438L380.557 163.803L350.365 245.85C350.946 247.704 350.93 249.745 350.319 251.585C349.708 253.426 348.545 254.938 347.05 255.837C345.556 256.735 343.834 256.956 342.21 256.458C340.587 255.96 339.174 254.778 338.241 253.136Z" fill="#FFB8B8"/>
<path d="M411.993 269.268C411.128 268.684 410.383 267.884 409.81 266.924C409.236 265.965 408.848 264.868 408.673 263.713C408.498 262.557 408.54 261.37 408.797 260.236C409.053 259.102 409.518 258.047 410.157 257.147L401.966 166.326L416.773 167.123L420.177 256.458C421.39 257.824 422.134 259.667 422.27 261.636C422.406 263.606 421.924 265.566 420.915 267.146C419.906 268.725 418.441 269.813 416.796 270.204C415.152 270.595 413.443 270.262 411.993 269.268Z" fill="#FFB8B8"/>
<path d="M388.371 139.535C396.977 139.535 403.954 131.316 403.954 121.177C403.954 111.038 396.977 102.819 388.371 102.819C379.764 102.819 372.787 111.038 372.787 121.177C372.787 131.316 379.764 139.535 388.371 139.535Z" fill="#FFB8B8"/>
<path d="M411.893 248.613H364.912L364.968 248.182C365.053 247.538 373.342 183.574 367.228 162.648C366.615 160.592 366.669 158.341 367.38 156.328C368.091 154.316 369.408 152.684 371.079 151.748H371.079C379.817 146.9 396.59 140.931 410.747 155.417C412.83 157.584 414.457 160.292 415.499 163.327C416.541 166.362 416.969 169.641 416.749 172.904L411.893 248.613Z" fill="#EC3237"/>
<path d="M373.935 193.027L352.784 187.972L362.698 160.294C363.292 157.614 364.763 155.32 366.79 153.915C368.818 152.511 371.235 152.112 373.512 152.804C375.789 153.497 377.74 155.225 378.937 157.609C380.134 159.994 380.479 162.841 379.896 165.525L373.935 193.027Z" fill="#EC3237"/>
<path d="M401.025 202.413L399.754 168.075C398.789 161.62 401.926 155.517 406.75 154.52C411.576 153.526 416.288 158.003 417.256 164.506L422.036 196.592L401.025 202.413Z" fill="#EC3237"/>
<path d="M410.33 244.502C417.89 278.418 418.715 321.54 416.675 368.577L406.523 367.082L388.123 277.389L377.972 368.577L366.551 367.83C363.139 318.476 359.817 276.107 365.282 248.239L410.33 244.502Z" fill="#000B17"/>
<path d="M398.639 135.365C395.731 139.013 390.332 137.054 389.954 132.071C389.924 131.684 389.926 131.294 389.96 130.908C390.156 128.7 391.238 126.696 390.979 124.365C390.92 123.785 390.737 123.232 390.446 122.759C388.129 119.104 382.691 124.393 380.505 121.085C379.164 119.056 380.74 115.863 379.711 113.595C378.353 110.603 374.332 112.079 371.809 110.44C369.003 108.617 369.171 103.545 371.018 100.46C373.271 96.6975 377.221 94.69 381.121 94.4006C385.022 94.1113 388.896 95.3534 392.537 97.0252C396.675 98.9247 400.778 101.55 403.324 105.836C406.42 111.048 406.718 118.055 405.17 124.149C404.228 127.857 401.013 132.386 398.639 135.365Z" fill="#000B17"/>
<path d="M532.954 388.403H64.519C64.3191 388.402 64.1275 388.308 63.9863 388.141C63.8451 387.975 63.7658 387.749 63.7658 387.513C63.7658 387.277 63.8451 387.051 63.9863 386.885C64.1275 386.718 64.3191 386.624 64.519 386.623H532.954C533.154 386.624 533.346 386.718 533.487 386.885C533.628 387.051 533.707 387.277 533.707 387.513C533.707 387.749 533.628 387.975 533.487 388.141C533.346 388.308 533.154 388.402 532.954 388.403Z" fill="#3F3D56"/>
<path d="M297.572 306.825H215.09C214.003 306.832 212.959 306.331 212.186 305.432C211.413 304.533 210.974 303.309 210.966 302.03V85.145C210.974 83.8653 211.413 82.6418 212.186 81.7429C212.959 80.844 214.003 80.343 215.09 80.3499H297.572C298.659 80.343 299.703 80.844 300.476 81.7429C301.249 82.6418 301.688 83.8653 301.697 85.145V302.03C301.688 303.309 301.249 304.533 300.476 305.432C299.703 306.331 298.659 306.832 297.572 306.825Z" fill="white"/>
<path d="M301.697 150.527H210.966V152.022H301.697V150.527Z" fill="#CCCCCC"/>
<path d="M302.014 235.818H211.283V237.313H302.014V235.818Z" fill="#CCCCCC"/>
<path d="M240.786 80.3499H239.517V307.572H240.786V80.3499Z" fill="#CCCCCC"/>
<path d="M272.51 80.3499H271.241V307.572H272.51V80.3499Z" fill="#CCCCCC"/>
<path d="M153.5 139.667C185.256 139.667 211 113.774 211 81.8334C211 49.8929 185.256 24 153.5 24C121.744 24 96 49.8929 96 81.8334C96 113.774 121.744 139.667 153.5 139.667Z" fill="#EC3237"/>
<path d="M173.483 112.964H132.805C132.062 112.963 131.348 112.615 130.822 111.995C130.297 111.376 130.001 110.536 130 109.659V80.7427C130.001 79.8666 130.297 79.0265 130.823 78.407C131.348 77.7874 132.062 77.4389 132.805 77.438H173.483C174.226 77.4389 174.939 77.7874 175.465 78.407C175.991 79.0265 176.287 79.8666 176.288 80.7427V109.659C176.287 110.536 175.991 111.376 175.465 111.995C174.939 112.615 174.226 112.963 173.483 112.964ZM132.805 80.7428V109.659H173.485L173.483 80.7427L132.805 80.7428Z" fill="white"/>
<path d="M165.768 80.7429H140.52V67.5238C140.52 57.9492 145.829 51 153.144 51C160.459 51 165.768 57.9492 165.768 67.5238L165.768 80.7429ZM143.325 77.4382H162.963V67.5238C162.963 59.7407 158.925 54.3048 153.144 54.3048C147.363 54.3048 143.325 59.7408 143.325 67.5238L143.325 77.4382Z" fill="white"/>
<path d="M144.9 91.6659C146.45 91.6659 147.705 90.1863 147.705 88.3612C147.705 86.536 146.45 85.0564 144.9 85.0564C143.351 85.0564 142.095 86.536 142.095 88.3612C142.095 90.1863 143.351 91.6659 144.9 91.6659Z" fill="white"/>
</g>
<defs>
<clipPath id="clip0_142_2008">
<rect width="552" height="388.773" fill="white"/>
</clipPath>
</defs>
</svg>
