<svg width="552" height="370" viewBox="0 0 552 370" fill="none" xmlns="http://www.w3.org/2000/svg">
<g opacity="0.2">
<path opacity="0.2" d="M191.083 340.104C191.36 341.241 191.729 342.354 192.185 343.432C199.276 340.645 206.446 337.974 213.693 335.419C213.632 335.118 213.571 334.802 213.494 334.49C212.764 331.28 211.206 328.317 208.974 325.896C206.077 322.834 202.342 321.354 198.71 322.257C195.077 323.161 192.44 326.253 191.236 330.321C190.336 333.513 190.283 336.885 191.083 340.104Z" fill="#3F3D56"/>
<path opacity="0.2" d="M201.272 334.016C207.497 332.625 211.036 324.743 209.176 316.411C207.316 308.079 200.761 302.452 194.535 303.843C188.31 305.234 184.771 313.116 186.631 321.448C188.491 329.78 195.046 335.407 201.272 334.016Z" fill="#3F3D56"/>
<path opacity="0.2" d="M196.903 315.636C203.129 314.245 206.668 306.362 204.807 298.03C202.947 289.698 196.392 284.071 190.166 285.462C183.941 286.853 180.402 294.735 182.262 303.067C184.123 311.4 190.678 317.026 196.903 315.636Z" fill="#3F3D56"/>
<path opacity="0.2" d="M192.525 297.266C198.751 295.875 202.29 287.993 200.43 279.661C198.569 271.329 192.014 265.702 185.789 267.093C179.563 268.484 176.024 276.366 177.885 284.698C179.745 293.03 186.3 298.657 192.525 297.266Z" fill="#3F3D56"/>
<path opacity="0.2" d="M188.148 278.891C194.373 277.5 197.912 269.618 196.052 261.286C194.192 252.954 187.637 247.327 181.411 248.718C175.186 250.109 171.647 257.991 173.507 266.323C175.367 274.655 181.922 280.282 188.148 278.891Z" fill="#3F3D56"/>
<path opacity="0.2" d="M196.792 127.556C197.853 125.174 198.75 122.722 199.475 120.217L168.865 122.626L200.771 114.904C202.295 106.878 202.102 98.6193 200.205 90.673C198.541 83.6382 195.558 76.9831 191.414 71.0604L154.07 104.463L186.399 64.9261C173.201 50.8304 153.239 44.1244 133.398 49.1054C103.753 56.5207 85.5855 87.1618 92.8196 117.543C95.6952 129.814 102.589 140.772 112.405 148.674C110.756 152.383 109.502 156.256 108.665 160.228L151.734 171.017L107.645 167.194C107.118 173.352 107.579 179.555 109.012 185.566C111.893 197.837 118.788 208.794 128.603 216.698C123.445 228.283 122.254 241.248 125.215 253.58C132.449 283.961 162.345 302.573 191.991 295.163C221.637 287.753 239.804 257.112 232.569 226.731C229.689 214.46 222.794 203.504 212.979 195.6C218.137 184.014 219.328 171.049 216.367 158.717C213.499 146.437 206.609 135.468 196.792 127.556Z" fill="#FA7800"/>
<path opacity="0.1" d="M109.023 185.546C111.903 197.817 118.798 208.773 128.613 216.677C123.455 228.263 122.264 241.228 125.225 253.56C132.46 283.941 162.355 302.553 192.001 295.143C221.647 287.732 239.814 257.091 232.58 226.71C229.699 214.44 222.804 203.483 212.989 195.579C217.958 184.423 107.553 179.386 109.023 185.546Z" fill="black"/>
</g>
<g opacity="0.2">
<path opacity="0.2" d="M328.67 334.495C328.484 335.824 328.41 337.166 328.45 338.507C337.344 338.65 346.272 338.949 355.234 339.405C355.295 339.053 355.356 338.696 355.407 338.333C355.985 334.591 355.554 330.763 354.157 327.243C352.311 322.742 348.867 319.522 344.556 318.899C340.245 318.277 336.041 320.4 333.006 324.186C330.668 327.175 329.171 330.734 328.67 334.495Z" fill="#3F3D56"/>
<path opacity="0.2" d="M358.503 316.952C359.892 307.283 355.032 298.583 347.647 297.521C340.262 296.459 333.149 303.437 331.759 313.107C330.37 322.776 335.23 331.476 342.615 332.538C350 333.6 357.113 326.622 358.503 316.952Z" fill="#3F3D56"/>
<path opacity="0.2" d="M361.576 295.551C362.966 285.881 358.105 277.182 350.72 276.12C343.335 275.058 336.222 282.036 334.833 291.706C333.443 301.375 338.303 310.075 345.688 311.137C353.073 312.199 360.187 305.221 361.576 295.551Z" fill="#3F3D56"/>
<path opacity="0.2" d="M364.649 274.155C366.038 264.485 361.178 255.786 353.793 254.724C346.408 253.662 339.295 260.64 337.905 270.31C336.516 279.979 341.376 288.679 348.761 289.741C356.146 290.803 363.259 283.825 364.649 274.155Z" fill="#3F3D56"/>
<path opacity="0.2" d="M367.727 252.755C369.117 243.085 364.257 234.385 356.872 233.323C349.487 232.261 342.373 239.239 340.984 248.909C339.594 258.579 344.455 267.278 351.84 268.34C359.225 269.402 366.338 262.424 367.727 252.755Z" fill="#3F3D56"/>
<path opacity="0.2" d="M425.428 111.572C427.59 109.504 429.605 107.287 431.458 104.937L397.159 94.1587L435.111 99.9001C439.894 92.4907 443.116 84.1831 444.58 75.4854C446.044 66.7876 445.719 57.8826 443.625 49.3147L388.854 68.4221L440.83 40.6083C437.519 32.3616 432.547 24.8851 426.222 18.6448C419.897 12.4044 412.355 7.53375 404.066 4.33628C395.778 1.13882 386.919 -0.316973 378.044 0.059609C369.168 0.436191 360.465 2.63708 352.477 6.52515C344.488 10.4132 337.386 15.9052 331.612 22.6589C325.838 29.4126 321.516 37.2834 318.916 45.7809C316.315 54.2784 315.492 63.2205 316.497 72.0503C317.501 80.88 320.313 89.4081 324.757 97.1034C321.396 100.315 318.391 103.879 315.793 107.734L357.989 137.987L311.712 114.675C306.843 124.279 304.446 134.946 304.736 145.71C305.027 156.475 307.996 166.997 313.375 176.324C304.587 184.706 298.334 195.392 295.331 207.16C292.328 218.929 292.696 231.306 296.393 242.875C300.09 254.445 306.967 264.74 316.237 272.584C325.508 280.428 336.798 285.504 348.816 287.232C360.835 288.96 373.097 287.269 384.2 282.355C395.303 277.44 404.8 269.499 411.605 259.439C418.409 249.379 422.247 237.607 422.678 225.469C423.11 213.331 420.119 201.315 414.046 190.798C424.548 180.781 431.38 167.524 433.444 153.155C435.509 138.787 432.685 124.142 425.428 111.572Z" fill="#FA7800"/>
<path opacity="0.1" d="M305.36 134.741C303.274 149.11 306.098 163.762 313.375 176.324C304.587 184.706 298.334 195.392 295.331 207.16C292.328 218.929 292.696 231.306 296.393 242.875C300.09 254.445 306.967 264.74 316.237 272.584C325.508 280.428 336.798 285.504 348.816 287.232C360.835 288.959 373.097 287.269 384.2 282.355C395.303 277.44 404.8 269.499 411.605 259.439C418.409 249.379 422.247 237.607 422.678 225.469C423.11 213.33 420.119 201.315 414.046 190.798C424.198 181.127 306.396 127.551 305.36 134.741Z" fill="black"/>
</g>
<path opacity="0.1" d="M276 370C428.431 370 552 362.917 552 354.179C552 345.442 428.431 338.359 276 338.359C123.569 338.359 0 345.442 0 354.179C0 362.917 123.569 370 276 370Z" fill="#FA7800"/>
<path d="M456.446 347.805C463.574 347.805 469.353 346.692 469.353 345.32C469.353 343.947 463.574 342.834 456.446 342.834C449.317 342.834 443.539 343.947 443.539 345.32C443.539 346.692 449.317 347.805 456.446 347.805Z" fill="#FA7800"/>
<path d="M456.232 346.238C457.063 346.238 457.737 345.356 457.737 344.268C457.737 343.18 457.063 342.298 456.232 342.298C455.4 342.298 454.727 343.18 454.727 344.268C454.727 345.356 455.4 346.238 456.232 346.238Z" fill="#3F3D56"/>
<path d="M456.232 343.829C457.063 343.829 457.737 342.948 457.737 341.86C457.737 340.772 457.063 339.89 456.232 339.89C455.4 339.89 454.727 340.772 454.727 341.86C454.727 342.948 455.4 343.829 456.232 343.829Z" fill="#3F3D56"/>
<path d="M456.232 341.426C457.063 341.426 457.737 340.544 457.737 339.456C457.737 338.368 457.063 337.486 456.232 337.486C455.4 337.486 454.727 338.368 454.727 339.456C454.727 340.544 455.4 341.426 456.232 341.426Z" fill="#3F3D56"/>
<path d="M456.232 339.022C457.063 339.022 457.737 338.14 457.737 337.052C457.737 335.964 457.063 335.082 456.232 335.082C455.4 335.082 454.727 335.964 454.727 337.052C454.727 338.14 455.4 339.022 456.232 339.022Z" fill="#3F3D56"/>
<path d="M456.232 336.613C457.063 336.613 457.737 335.731 457.737 334.643C457.737 333.555 457.063 332.673 456.232 332.673C455.4 332.673 454.727 333.555 454.727 334.643C454.727 335.731 455.4 336.613 456.232 336.613Z" fill="#3F3D56"/>
<path d="M456.232 334.209C457.063 334.209 457.737 333.327 457.737 332.239C457.737 331.151 457.063 330.27 456.232 330.27C455.4 330.27 454.727 331.151 454.727 332.239C454.727 333.327 455.4 334.209 456.232 334.209Z" fill="#3F3D56"/>
<path d="M456.232 331.806C457.063 331.806 457.737 330.924 457.737 329.836C457.737 328.748 457.063 327.866 456.232 327.866C455.4 327.866 454.727 328.748 454.727 329.836C454.727 330.924 455.4 331.806 456.232 331.806Z" fill="#3F3D56"/>
<path d="M461.854 313.377C462.06 313.116 462.248 312.839 462.415 312.551L458.466 311.902L462.736 311.933C463.145 311.041 463.368 310.075 463.392 309.094C463.416 308.113 463.24 307.138 462.874 306.227L457.145 309.203L462.43 305.314C461.937 304.453 461.272 303.704 460.476 303.112C459.68 302.521 458.77 302.1 457.804 301.877C456.838 301.653 455.836 301.632 454.861 301.813C453.886 301.995 452.96 302.376 452.139 302.933C451.318 303.489 450.621 304.209 450.091 305.048C449.561 305.886 449.21 306.825 449.06 307.806C448.91 308.786 448.964 309.787 449.218 310.746C449.472 311.704 449.922 312.6 450.538 313.377C450.219 313.784 449.944 314.224 449.717 314.689L454.819 317.353L449.355 315.516C448.972 316.653 448.88 317.868 449.086 319.05C449.293 320.232 449.792 321.343 450.538 322.283C449.703 323.345 449.183 324.621 449.039 325.964C448.894 327.308 449.131 328.665 449.721 329.881C450.311 331.097 451.231 332.122 452.376 332.839C453.521 333.556 454.845 333.936 456.196 333.936C457.547 333.936 458.871 333.556 460.016 332.839C461.161 332.122 462.081 331.097 462.671 329.881C463.261 328.665 463.498 327.308 463.353 325.964C463.209 324.621 462.689 323.345 461.854 322.283C462.852 321.014 463.394 319.447 463.394 317.833C463.394 316.218 462.852 314.651 461.854 313.382V313.377Z" fill="#FA7800"/>
<path opacity="0.1" d="M448.997 317.827C448.993 319.441 449.532 321.009 450.528 322.278C449.693 323.34 449.173 324.616 449.029 325.959C448.884 327.303 449.12 328.66 449.711 329.876C450.301 331.091 451.221 332.116 452.366 332.833C453.511 333.55 454.835 333.931 456.186 333.931C457.537 333.931 458.86 333.55 460.005 332.833C461.15 332.116 462.071 331.091 462.661 329.876C463.251 328.66 463.487 327.303 463.343 325.959C463.198 324.616 462.679 323.34 461.844 322.278C462.818 321.053 448.997 317.021 448.997 317.827Z" fill="black"/>
<path d="M160.039 367.795C169.563 367.795 177.283 366.31 177.283 364.478C177.283 362.646 169.563 361.161 160.039 361.161C150.516 361.161 142.796 362.646 142.796 364.478C142.796 366.31 150.516 367.795 160.039 367.795Z" fill="#FA7800"/>
<path d="M159.748 365.698C160.858 365.698 161.758 364.521 161.758 363.07C161.758 361.618 160.858 360.441 159.748 360.441C158.638 360.441 157.738 361.618 157.738 363.07C157.738 364.521 158.638 365.698 159.748 365.698Z" fill="#3F3D56"/>
<path d="M159.748 362.483C160.858 362.483 161.758 361.306 161.758 359.854C161.758 358.403 160.858 357.226 159.748 357.226C158.638 357.226 157.738 358.403 157.738 359.854C157.738 361.306 158.638 362.483 159.748 362.483Z" fill="#3F3D56"/>
<path d="M159.748 359.268C160.858 359.268 161.758 358.091 161.758 356.639C161.758 355.188 160.858 354.011 159.748 354.011C158.638 354.011 157.738 355.188 157.738 356.639C157.738 358.091 158.638 359.268 159.748 359.268Z" fill="#3F3D56"/>
<path d="M159.748 356.057C160.858 356.057 161.758 354.881 161.758 353.429C161.758 351.978 160.858 350.801 159.748 350.801C158.638 350.801 157.738 351.978 157.738 353.429C157.738 354.881 158.638 356.057 159.748 356.057Z" fill="#3F3D56"/>
<path d="M159.748 352.842C160.858 352.842 161.758 351.666 161.758 350.214C161.758 348.762 160.858 347.586 159.748 347.586C158.638 347.586 157.738 348.762 157.738 350.214C157.738 351.666 158.638 352.842 159.748 352.842Z" fill="#3F3D56"/>
<path d="M159.748 349.627C160.858 349.627 161.758 348.45 161.758 346.999C161.758 345.547 160.858 344.371 159.748 344.371C158.638 344.371 157.738 345.547 157.738 346.999C157.738 348.45 158.638 349.627 159.748 349.627Z" fill="#3F3D56"/>
<path d="M159.748 346.417C160.858 346.417 161.758 345.24 161.758 343.789C161.758 342.337 160.858 341.16 159.748 341.16C158.638 341.16 157.738 342.337 157.738 343.789C157.738 345.24 158.638 346.417 159.748 346.417Z" fill="#3F3D56"/>
<path d="M167.268 321.798C167.54 321.447 167.789 321.079 168.013 320.696L162.743 319.828L168.447 319.874C168.996 318.683 169.295 317.392 169.327 316.081C169.358 314.769 169.121 313.466 168.63 312.249L160.978 316.22L168.034 311.055C167.369 309.917 166.479 308.928 165.417 308.149C164.355 307.369 163.144 306.817 161.859 306.525C160.575 306.233 159.244 306.208 157.95 306.452C156.655 306.695 155.425 307.203 154.334 307.942C153.244 308.681 152.317 309.636 151.611 310.748C150.905 311.861 150.435 313.106 150.229 314.408C150.024 315.709 150.089 317.039 150.419 318.315C150.748 319.59 151.337 320.785 152.147 321.823C151.721 322.368 151.353 322.957 151.05 323.579L157.902 327.151L150.596 324.702C150.082 326.216 149.953 327.835 150.22 329.412C150.487 330.989 151.142 332.474 152.127 333.735C151.011 335.154 150.318 336.858 150.125 338.653C149.933 340.448 150.249 342.261 151.038 343.884C151.826 345.508 153.056 346.876 154.585 347.834C156.115 348.792 157.883 349.3 159.687 349.3C161.492 349.3 163.26 348.792 164.789 347.834C166.319 346.876 167.548 345.508 168.337 343.884C169.125 342.261 169.441 340.448 169.249 338.653C169.056 336.858 168.363 335.154 167.248 333.735C168.58 332.038 169.304 329.944 169.304 327.787C169.304 325.63 168.58 323.535 167.248 321.839L167.268 321.798Z" fill="#FA7800"/>
<path opacity="0.1" d="M150.091 327.743C150.085 329.9 150.803 331.996 152.132 333.694C151.017 335.113 150.323 336.817 150.131 338.612C149.938 340.407 150.254 342.22 151.043 343.843C151.831 345.467 153.061 346.836 154.59 347.793C156.12 348.751 157.888 349.259 159.692 349.259C161.497 349.259 163.265 348.751 164.794 347.793C166.324 346.836 167.553 345.467 168.342 343.843C169.13 342.22 169.447 340.407 169.254 338.612C169.062 336.817 168.368 335.113 167.253 333.694C168.554 332.056 150.091 326.667 150.091 327.743Z" fill="black"/>
<path d="M250.828 218.392C249.528 211.584 248.074 204.76 247.834 197.835C247.691 193.752 247.977 189.598 247.451 185.526C247.191 183.525 246.737 181.56 246.288 179.595L244.482 171.731C244.687 170.223 244.628 168.692 244.309 167.204C244.128 166.42 243.887 165.65 243.589 164.903C245.275 162.529 246.665 159.958 247.727 157.247C248.206 156.023 248.619 154.721 248.431 153.425C248.063 150.94 245.655 149.301 243.416 148.076C242.059 147.336 240.63 146.622 239.079 146.505C237.995 146.461 236.915 146.668 235.924 147.111C234.933 147.554 234.057 148.219 233.365 149.056C232.989 147.044 233.115 144.97 233.733 143.019C232.401 142.422 231.06 141.86 229.708 141.314C229.512 139.551 229.444 137.775 229.504 136.002C229.534 133.874 229.57 131.725 229.692 129.592C233.32 128.267 236.457 125.864 238.68 122.705C240.903 119.546 242.107 115.782 242.13 111.919C242.13 111.699 242.13 111.485 242.13 111.27C243.119 109.492 243.744 107.535 243.97 105.513C244.196 103.491 244.018 101.444 243.446 99.4917C241.952 94.3882 238.044 90.183 233.335 87.5853C228.626 84.9877 223.167 83.8904 217.765 83.6965C215.951 83.5903 214.132 83.7051 212.347 84.0384C210.436 84.5089 208.584 85.1937 206.827 86.0798C204.128 87.325 201.409 88.6877 199.388 90.8362C195.884 94.577 195.098 100.073 195.481 105.126C195.991 111.76 198.205 118.18 200.766 124.356C201.618 126.397 202.526 128.469 203.929 130.209C205.016 131.552 206.903 131.633 208.403 130.694C208.284 132.324 208.246 133.959 208.291 135.593C205.521 135.496 202.822 135.951 200.597 137.512C199.577 138.242 198.608 139.39 198.832 140.625C199.514 140.644 200.167 140.902 200.676 141.355C201.186 141.808 201.519 142.426 201.618 143.101C201.73 144.188 201.184 145.224 200.654 146.163C200.424 146.581 200.194 147.005 199.96 147.423C197.766 149.771 195.516 152.71 195.317 155.624C194.959 155.658 194.603 155.711 194.251 155.783C192.261 156.15 190.282 156.829 188.328 157.339L174.186 161.065L170.692 162.034L165.08 163.514C161.509 164.453 157.871 165.418 154.703 167.306C151.535 169.195 148.846 172.16 148.209 175.732C147.892 177.508 148.086 179.356 147.698 181.116C147.698 181.198 147.668 181.274 147.647 181.351C147.323 182.465 146.887 183.544 146.346 184.571C143.178 191.252 140.923 198.534 141.347 205.888C141.607 210.405 142.877 214.809 144.112 219.157C145.408 223.604 146.687 228.051 147.948 232.498C148.78 235.681 149.836 238.802 151.106 241.837C153.283 246.699 156.512 251.017 160.56 254.478C161.696 255.497 162.966 256.356 164.335 257.03C166.422 257.933 168.701 258.303 170.967 258.107C171.579 258.066 172.181 258 172.778 257.903C177.16 257.209 181.247 255.096 184.997 252.718C186.565 251.724 188.095 250.678 189.588 249.579C189.778 251.293 190.119 252.988 190.608 254.642C190.94 255.78 191.348 256.948 191.216 258.127C191.032 259.771 189.838 261.118 189.221 262.659C187.91 265.915 189.256 269.544 189.476 273.034C189.685 276.306 188.889 279.552 188.251 282.772C187.186 288.142 186.557 293.59 186.369 299.062C186.363 301.134 186.227 303.203 185.961 305.258C185.486 308.156 184.374 310.953 184.18 313.882C183.884 318.445 185.854 322.91 185.675 327.478C185.466 332.842 182.318 338.052 183.415 343.299C183.553 343.957 183.925 344.717 184.527 344.886L184.231 345.156C183.328 345.993 182.451 347.54 183.476 348.218C183.712 348.359 183.974 348.449 184.247 348.484C185.833 348.816 187.43 349.117 189.027 349.397C188.992 350.873 189.178 352.345 189.578 353.766C189.869 353.975 190.165 354.164 190.46 354.343C190.236 354.945 190.251 355.527 190.782 355.874C191.018 356.014 191.28 356.104 191.552 356.139C204.694 358.851 218.115 359.965 231.524 359.456C233.922 359.364 236.426 359.191 238.472 357.966C240.518 356.741 241.901 354.133 240.926 351.985C240.064 350.086 237.809 349.265 235.784 348.632L233.406 347.897C233.711 347.357 233.888 346.754 233.926 346.135C233.963 345.516 233.858 344.897 233.621 344.324C232.758 342.426 230.503 341.604 228.478 340.971L223.004 339.272C222.284 339.101 221.606 338.783 221.014 338.338C220.622 337.948 220.261 337.528 219.933 337.083C219.143 336.179 218.105 335.528 216.948 335.21C216.887 334.049 216.912 332.886 217.025 331.729L218.555 313.25C218.897 309.065 219.234 304.798 218.259 300.71C217.867 299.052 217.239 297.352 217.622 295.689C218.219 292.974 221.076 291.463 223.024 289.447C225.963 286.385 226.876 282.032 227.55 277.888C230.338 260.787 231.214 243.429 230.162 226.134C236.286 224.407 242.589 223.393 248.946 223.112C250.027 223.067 250.558 222.556 250.895 221.546C251.231 220.535 251.027 219.438 250.828 218.392ZM220.295 219.295C220.331 219.116 220.372 218.938 220.402 218.759L220.826 219.3L220.295 219.295Z" fill="url(#paint0_linear_158_2048)"/>
<path d="M210.347 125.621C210.214 127.397 209.587 129.102 209.357 130.873C209.097 132.822 209.326 134.808 209.199 136.772C209.071 138.737 208.505 140.804 207.01 142.085C215.698 142.838 224.256 144.69 232.478 147.597C229.993 144.535 229.927 140.258 229.988 136.328C230.07 130.516 230.172 124.59 232.07 119.104C226.409 117.839 220.548 117.762 214.857 118.88C213.622 119.125 209.882 118.972 209.326 120.125C208.923 120.972 210.439 124.335 210.347 125.621Z" fill="#A1616A"/>
<path opacity="0.1" d="M210.347 125.621C210.214 127.397 209.587 129.102 209.357 130.873C209.097 132.822 209.326 134.808 209.199 136.772C209.071 138.737 208.505 140.804 207.01 142.085C215.698 142.838 224.256 144.69 232.478 147.597C229.993 144.535 229.927 140.258 229.988 136.328C230.07 130.516 230.172 124.59 232.07 119.104C226.409 117.839 220.548 117.762 214.857 118.88C213.622 119.125 209.882 118.972 209.326 120.125C208.923 120.972 210.439 124.335 210.347 125.621Z" fill="black"/>
<path d="M220.632 337.108C220.938 337.561 221.279 337.989 221.652 338.389C222.226 338.835 222.889 339.153 223.596 339.323L228.942 341.023C230.927 341.655 233.131 342.472 233.972 344.37C234.921 346.514 233.569 349.122 231.569 350.341C229.57 351.561 227.121 351.74 224.779 351.832C211.668 352.337 198.545 351.225 185.706 348.519C185.441 348.481 185.186 348.391 184.956 348.254C183.935 347.565 184.808 346.024 185.69 345.192C189.134 341.926 192.878 338.501 197.567 337.746C200.031 337.343 202.505 337.506 204.954 336.919C206.714 336.496 208.377 335.766 210.132 335.332C213.402 334.531 218.295 334.245 220.632 337.108Z" fill="#46455B"/>
<path opacity="0.1" d="M220.632 337.108C220.938 337.561 221.279 337.989 221.652 338.389C222.226 338.835 222.889 339.153 223.596 339.323L228.942 341.023C230.927 341.655 233.131 342.472 233.972 344.37C234.921 346.514 233.569 349.122 231.569 350.341C229.57 351.561 227.121 351.74 224.779 351.832C211.668 352.337 198.545 351.225 185.706 348.519C185.441 348.481 185.186 348.391 184.956 348.254C183.935 347.565 184.808 346.024 185.69 345.192C189.134 341.926 192.878 338.501 197.567 337.746C200.031 337.343 202.505 337.506 204.954 336.919C206.714 336.496 208.377 335.766 210.132 335.332C213.402 334.531 218.295 334.245 220.632 337.108Z" fill="black"/>
<path d="M193.787 221.678C191.148 228.643 190.986 236.303 193.327 243.373C191.547 243.179 190.777 245.588 190.823 247.384C190.886 249.885 191.265 252.368 191.95 254.774C192.277 255.917 192.674 257.081 192.547 258.255C192.363 259.898 191.2 261.245 190.593 262.782C189.318 266.032 190.629 269.656 190.848 273.142C191.052 276.413 190.272 279.654 189.644 282.869C188.605 288.233 187.99 293.672 187.807 299.133C187.804 301.203 187.669 303.271 187.404 305.324C186.945 308.223 185.874 311.014 185.67 313.939C185.379 318.491 187.302 322.956 187.129 327.519C186.925 332.872 183.843 338.078 184.92 343.34C185.073 344.08 185.486 344.952 186.246 344.962C193.94 345.059 201.128 342.921 208.74 344.039C209.515 326.422 210.27 308.723 213.739 291.427C216.8 276.03 221.989 260.807 221.504 245.108C221.223 236.131 219.091 227.328 217.795 218.438C209.661 216.631 201.151 217.78 193.787 221.678Z" fill="#BBBDC8"/>
<path opacity="0.1" d="M193.787 221.678C191.148 228.643 190.986 236.303 193.327 243.373C191.547 243.179 190.777 245.588 190.823 247.384C190.886 249.885 191.265 252.368 191.95 254.774C192.277 255.917 192.674 257.081 192.547 258.255C192.363 259.898 191.2 261.245 190.593 262.782C189.318 266.032 190.629 269.656 190.848 273.142C191.052 276.413 190.272 279.654 189.644 282.869C188.605 288.233 187.99 293.672 187.807 299.133C187.804 301.203 187.669 303.271 187.404 305.324C186.945 308.223 185.874 311.014 185.67 313.939C185.379 318.491 187.302 322.956 187.129 327.519C186.925 332.872 183.843 338.078 184.92 343.34C185.073 344.08 185.486 344.952 186.246 344.962C193.94 345.059 201.128 342.921 208.74 344.039C209.515 326.422 210.27 308.723 213.739 291.427C216.8 276.03 221.989 260.807 221.504 245.108C221.223 236.131 219.091 227.328 217.795 218.438C209.661 216.631 201.151 217.78 193.787 221.678Z" fill="black"/>
<path d="M227.774 344.763C228.08 345.216 228.422 345.644 228.794 346.044C229.369 346.49 230.031 346.808 230.738 346.978L236.084 348.678C238.069 349.311 240.273 350.127 241.115 352.026C242.064 354.169 240.712 356.777 238.712 357.997C236.712 359.216 234.263 359.395 231.922 359.487C218.81 359.992 205.687 358.88 192.848 356.175C192.583 356.136 192.328 356.046 192.098 355.909C191.078 355.22 191.95 353.679 192.833 352.847C196.276 349.581 200.021 346.157 204.709 345.401C207.173 344.998 209.648 345.162 212.096 344.575C213.857 344.151 215.52 343.421 217.275 342.987C220.545 342.186 225.437 341.9 227.774 344.763Z" fill="#46455B"/>
<path d="M196.44 222.184C194.47 224.736 193.889 228.104 194.154 231.299C194.419 234.493 195.496 237.561 196.552 240.587C195.149 241.878 195.44 244.103 195.623 246.002C196.292 253.055 193.843 260.092 194.2 267.166C194.348 270.141 194.996 273.075 195.149 276.051C195.317 279.302 194.904 282.553 194.516 285.783C192.04 306.464 190.677 327.263 190.435 348.091C190.435 350.01 190.404 351.959 190.945 353.797C194.654 356.527 199.312 356.894 203.801 355.874C208.291 354.853 212.387 352.577 216.413 350.331C218.618 349.19 220.709 347.84 222.657 346.3C223.253 345.878 223.694 345.272 223.912 344.575C224.341 342.533 221.504 341.61 219.877 340.288C217.509 338.364 217.545 334.802 217.79 331.76L219.269 313.306C219.606 309.126 219.933 304.865 218.984 300.782C218.596 299.129 217.999 297.429 218.356 295.765C218.938 293.061 221.734 291.55 223.637 289.534C226.514 286.472 227.402 282.129 228.065 277.995C231.19 258.384 231.855 238.459 230.044 218.683C226.294 219.984 221.851 219.275 217.897 219.581C213.943 219.887 210.015 221.209 206.01 221.316C202.674 221.393 198.49 219.55 196.44 222.184Z" fill="#BBBDC8"/>
<path d="M223.453 131.159C233.878 131.159 242.329 122.704 242.329 112.276C242.329 101.847 233.878 93.3931 223.453 93.3931C213.028 93.3931 204.577 101.847 204.577 112.276C204.577 122.704 213.028 131.159 223.453 131.159Z" fill="#A1616A"/>
<path d="M234.12 143.335C228.072 140.556 221.765 138.379 215.29 136.834C210.729 135.747 205.52 135.093 201.71 137.824C200.689 138.553 199.766 139.702 199.985 140.937C200.658 140.959 201.3 141.22 201.798 141.672C202.296 142.125 202.618 142.739 202.704 143.407C202.817 144.489 202.286 145.525 201.766 146.469L197.363 154.634C196.519 156.105 195.794 157.641 195.195 159.228C194.307 161.82 194.113 164.596 193.924 167.332L193.414 174.742C193.098 179.412 192.777 184.102 193.2 188.761C193.516 192.277 194.251 195.809 193.751 199.305C193.348 202.117 192.159 204.755 191.491 207.521C190.236 212.727 190.807 218.433 188.374 223.209C189.362 222.753 190.478 222.652 191.532 222.924C198.919 224.286 204.73 230.12 211.903 232.35C213.714 229.706 216.168 227.757 218.193 225.297C219.699 223.453 220.697 221.246 221.086 218.897C222.616 220.938 223.917 222.531 224.83 224.899C224.993 225.45 225.271 225.959 225.647 226.394C226.611 227.333 228.197 226.971 229.488 226.578C235.816 224.668 242.358 223.559 248.961 223.276C250.022 223.23 250.538 222.72 250.869 221.709C251.201 220.699 251.017 219.606 250.818 218.565C249.548 211.762 248.13 204.949 247.895 198.034C247.752 193.951 248.033 189.812 247.517 185.74C247.262 183.744 246.818 181.78 246.38 179.82L242.737 163.627C242.533 162.723 241.564 162.131 241.15 161.3C239.477 157.911 236.278 155.461 234.625 152.062C233.377 149.318 233.197 146.206 234.12 143.335Z" fill="#46455B"/>
<path d="M207.638 119.834C207.616 119.57 207.678 119.305 207.816 119.079C208.018 118.867 208.271 118.71 208.551 118.625C209.311 118.263 209.934 117.664 210.323 116.917C210.713 116.17 210.848 115.316 210.709 114.486L212.494 114.113L212.551 107.892C215.203 106.422 218.82 107.535 221.315 105.805C222.718 104.825 223.437 103.161 224.295 101.681C225.152 100.201 226.427 98.7109 228.131 98.5885C227.545 100.079 227.294 101.681 227.395 103.28C227.497 104.879 227.948 106.436 228.718 107.841C230.504 106.937 231.996 105.542 233.018 103.819L233.906 108.923C233.924 109.238 234.059 109.534 234.284 109.755C234.748 110.097 235.375 109.668 235.784 109.244L238.095 106.973C239.067 109.415 239.734 111.967 240.079 114.572C243.875 110.888 245.053 104.968 243.594 99.8847C242.135 94.8017 238.314 90.5914 233.712 87.9937C229.111 85.3961 223.774 84.3039 218.494 84.11C216.721 84.0062 214.943 84.121 213.198 84.4519C211.327 84.9229 209.516 85.6079 207.801 86.4933C205.163 87.7334 202.5 89.096 200.531 91.2395C197.103 94.9752 196.332 100.467 196.71 105.529C197.22 112.164 199.373 118.568 201.878 124.733C202.709 126.775 203.597 128.842 204.969 130.582C207.036 133.2 212.112 131.026 211.464 125.851C211.015 122.156 207.638 123.58 207.638 119.834Z" fill="#3F3D56"/>
<path d="M214.78 220.928C208.413 233.942 198.636 244.983 186.491 252.876C182.823 255.249 178.839 257.362 174.548 258.056C173.962 258.153 173.375 258.219 172.778 258.26C170.565 258.443 168.342 258.066 166.314 257.163C164.971 256.486 163.728 255.628 162.621 254.611C158.651 251.135 155.496 246.826 153.381 241.99C152.139 238.956 151.107 235.838 150.295 232.661C149.043 228.218 147.795 223.773 146.55 219.326C145.331 214.978 144.102 210.579 143.846 206.057C143.433 198.713 145.637 191.441 148.734 184.77C149.262 183.743 149.687 182.666 150.004 181.555C150.004 181.479 150.04 181.402 150.055 181.321C150.423 179.56 150.234 177.717 150.565 175.941C151.188 172.369 153.82 169.409 156.912 167.526C160.003 165.643 163.544 164.678 167.059 163.739L172.533 162.264L175.931 161.351L189.751 157.63C191.664 157.12 193.598 156.441 195.542 156.099C197.71 155.691 197.695 155.905 197.863 158.028C198.174 161.876 198.072 165.658 198.883 169.47C199.654 173.109 201.011 176.615 202.031 180.188C204.607 189.205 205.036 198.698 207.066 207.858C207.531 209.946 208.173 212.171 209.852 213.472C211.775 215.003 215.015 215.381 215.525 217.78C215.714 218.846 215.239 219.938 214.78 220.928Z" fill="#FA7800"/>
<path opacity="0.1" d="M174.548 258.035C173.962 258.132 173.375 258.199 172.778 258.239C170.567 258.429 168.344 258.059 166.314 257.163C164.971 256.486 163.728 255.628 162.621 254.611C158.65 251.135 155.496 246.826 153.381 241.99C152.139 238.955 151.107 235.838 150.295 232.661C149.043 228.218 147.795 223.772 146.55 219.326C145.331 214.978 144.102 210.578 143.846 206.057C143.433 198.713 145.637 191.44 148.734 184.77C149.262 183.743 149.687 182.666 150.004 181.555C150.004 181.479 150.04 181.402 150.055 181.32C158.381 182.785 168.37 198.718 173.523 219.596C177.318 235.208 177.482 249.584 174.548 258.035Z" fill="black"/>
<path opacity="0.1" d="M189.598 203.102L188.206 203.342C186.772 199.575 185.343 195.804 183.665 192.14C182.793 190.226 181.849 188.338 181.114 186.363C178.359 178.779 178.829 169.782 173.722 163.535C173.357 163.071 172.941 162.65 172.482 162.279L175.88 161.366C178.855 166.072 180.954 171.278 182.073 176.732C182.624 179.396 182.935 182.122 183.833 184.684C184.597 186.627 185.471 188.525 186.451 190.369C188.389 194.344 189.848 198.687 189.598 203.102Z" fill="black"/>
<path d="M203.158 145.601C206.826 142.458 211.831 140.733 216.581 141.519C219.377 141.973 221.973 143.233 224.478 144.581C229.36 147.173 234.171 150.159 237.691 154.42C239.802 157.108 241.555 160.058 242.905 163.198C243.568 164.57 244.081 166.009 244.436 167.49C245.681 173.257 242.625 178.988 239.681 184.102L234.018 193.931C231.416 198.447 228.794 202.995 225.407 206.96C223.846 208.787 222.131 210.476 220.422 212.166L212.918 219.576C212.783 219.735 212.606 219.853 212.408 219.918C212.244 219.926 212.08 219.899 211.928 219.839C211.775 219.778 211.638 219.685 211.525 219.566L209.046 217.59C211.329 216.012 213.452 214.212 215.382 212.217C218.627 208.859 221.295 204.995 223.948 201.147L232.202 189.175C234.615 185.668 237.135 181.81 236.865 177.564C236.737 175.523 235.972 173.604 235.171 171.731C233.753 168.4 232.212 165.122 230.549 161.897C228.682 158.278 226.641 154.706 223.953 151.649C221.264 148.592 217.866 146.035 213.953 144.928C212.786 144.546 211.549 144.428 210.331 144.581C207.648 145.025 205.74 147.331 204.041 149.475L198.868 156.109C197.689 157.615 196.608 159.36 196.536 156.502C196.414 152.425 200.536 148.224 203.158 145.601Z" fill="#FA7800"/>
<path d="M204.76 190.359C205.781 194.288 207.286 198.749 211.066 200.239C213.744 201.295 216.882 200.438 219.198 198.708C221.514 196.978 223.157 194.538 224.667 192.073C225.945 189.858 227.354 187.721 228.886 185.674C231.911 181.877 236.028 178.866 238.069 174.446C238.671 173.129 239.089 171.721 239.773 170.455C240.504 169.288 241.329 168.184 242.242 167.153C244.591 164.242 246.469 160.981 247.808 157.487C248.278 156.268 248.681 154.961 248.497 153.67C248.135 151.185 245.783 149.551 243.594 148.332C242.263 147.592 240.87 146.872 239.355 146.76C237.141 146.586 234.962 147.781 233.6 149.531C232.289 151.342 231.556 153.507 231.498 155.742C231.345 158.462 231.876 161.289 230.988 163.862C230.519 165.061 229.87 166.183 229.065 167.189C226.199 171.024 222.652 174.299 218.601 176.85C218.49 174.919 218.072 173.019 217.361 171.221C216.974 170.231 209.372 171.221 208.383 171.384C206.423 171.67 202.628 171.894 201.393 173.762C200.159 175.63 201.689 178.769 202.189 180.652L204.76 190.359Z" fill="#A1616A"/>
<path d="M204.577 147.474C203.448 148.408 202.397 149.432 201.434 150.536C199.169 153.267 198.062 156.819 197.776 160.355C197.491 163.892 197.975 167.444 198.582 170.94C199.133 174.077 199.785 177.192 200.536 180.284C200.745 177.952 202.633 176.023 204.822 175.181C207.01 174.339 209.413 174.431 211.745 174.773C214.745 175.217 217.673 176.064 220.448 177.289L221.525 162.198C221.751 160.162 221.739 158.107 221.489 156.074C221.15 154.187 220.413 152.394 219.328 150.815C218.242 149.235 216.833 147.905 215.193 146.913C211.102 144.422 208.25 144.264 204.577 147.474Z" fill="#46455B"/>
<path d="M397.307 220.908C396.823 216.812 395.632 212.832 393.787 209.144C392.66 206.899 391.287 204.75 390.578 202.347C390.002 200.392 389.89 198.335 389.43 196.35C388.971 194.365 388.16 192.466 387.507 190.527C382.89 176.748 386.359 161.672 384.87 147.229C384.313 141.901 382.681 136.058 378.064 133.282C375.319 131.633 372.024 131.378 368.794 131.24L367.32 131.174L364.953 131.056C361.524 130.888 358.086 130.76 354.749 131.48C350.668 132.373 345.832 135.246 344.546 139.416C343.842 139.054 343.133 138.732 342.48 138.431C339.852 137.265 337.097 136.408 334.271 135.879C336.695 135.268 339.036 134.364 341.24 133.185C346.342 130.214 347.525 121.539 348.566 115.736C349.607 109.933 348.658 103.937 346.928 98.2974C346.357 96.2964 345.579 94.3602 344.607 92.5204C343.264 90.0969 341.436 87.9765 339.237 86.2916C337.038 84.6067 334.516 83.3935 331.827 82.7278C329.138 82.062 326.341 81.9581 323.61 82.4225C320.88 82.8868 318.274 83.9095 315.956 85.4266C311.196 88.5448 306.773 93.0817 303.141 97.4656C302.631 98.0678 300.498 100.201 301.207 101.099C301.605 101.61 302.916 101.201 304.294 100.589C303.234 102.984 302.688 105.574 302.692 108.193C302.695 111.482 303.554 114.714 305.185 117.571C306.816 120.427 309.162 122.809 311.992 124.483L312.502 129.178V129.214C312.559 130.781 312.584 132.348 312.604 133.909C312.604 135.007 312.604 136.129 312.574 137.252C310.457 139.648 307.865 141.577 304.962 142.917C307.36 143.315 309.645 142.754 311.87 141.794C311.508 143.048 310.901 144.217 310.084 145.234C310.696 145.02 311.309 144.826 311.921 144.621C311.601 145.136 311.316 145.671 311.069 146.224C310.691 147.098 310.416 148.012 310.247 148.949C308.948 150.848 307.823 152.86 306.885 154.961C306.457 155.915 306.074 156.885 305.727 157.87V157.936C305.387 158.916 305.086 159.91 304.824 160.917C304.702 161.4 304.59 161.885 304.488 162.371C304.488 162.407 304.488 162.443 304.488 162.478C304.284 163.463 304.115 164.453 303.978 165.454C303.978 165.52 303.978 165.586 303.978 165.658C303.921 166.122 303.87 166.592 303.835 167.061C303.835 167.061 303.835 167.107 303.835 167.133C303.794 167.643 303.763 168.128 303.748 168.628C303.748 168.694 303.748 168.756 303.748 168.822C303.748 169.246 303.748 169.674 303.748 170.098V170.389C303.748 171.348 303.809 172.313 303.901 173.277C303.901 173.395 303.901 173.517 303.937 173.635C303.978 174.028 304.023 174.42 304.08 174.819C304.08 174.91 304.08 175.002 304.115 175.089C304.182 175.564 304.258 176.033 304.345 176.503C304.345 176.605 304.391 176.712 304.411 176.814C304.483 177.192 304.559 177.564 304.646 177.942L304.738 178.33C304.85 178.799 304.967 179.264 305.1 179.733C305.176 179.999 305.253 180.244 305.335 180.524C305.578 181.492 305.749 182.476 305.845 183.469L303.054 183.561C297.082 183.731 291.115 184.001 285.152 184.372C284.408 181.499 281.867 179.84 278.668 179.447C278.16 179.386 277.649 179.356 277.138 179.356C277.689 178.891 278.18 178.357 278.597 177.768C279.152 177.005 279.547 176.137 279.76 175.217C278.938 175.685 278.219 176.315 277.648 177.069C277.459 177.324 277.291 177.58 277.138 177.814V176.283C277.138 176.251 277.132 176.219 277.12 176.189C277.108 176.159 277.09 176.131 277.068 176.108C277.045 176.086 277.017 176.068 276.987 176.056C276.957 176.043 276.925 176.038 276.893 176.038H276.383C276.35 176.038 276.318 176.043 276.288 176.056C276.258 176.068 276.231 176.086 276.208 176.108C276.185 176.131 276.167 176.159 276.155 176.189C276.143 176.219 276.137 176.251 276.138 176.283V179.401H276.036H275.862C275.526 179.432 275.199 179.473 274.878 179.534C271.403 180.182 268.858 182.412 268.858 186.169C268.859 187.351 269.116 188.52 269.613 189.593C270.11 190.666 270.834 191.619 271.735 192.385C271.885 193.554 272.15 194.707 272.526 195.824C272.878 196.932 273.337 198.136 274.367 198.687C274.997 198.973 275.687 199.099 276.378 199.055C282.051 199.055 287.418 196.437 293.065 195.993C296.555 195.712 300.059 196.253 303.559 196.146C304.069 196.146 304.58 196.095 305.09 196.054C300.304 219.76 294.514 243.766 297.539 267.712C297.738 269.304 298.049 271.029 299.238 272.111C300.814 273.55 303.243 273.315 305.36 273.131C311.17 272.601 317.028 273.069 322.68 274.514C323.475 274.734 324.31 274.764 325.119 274.601C325.292 274.562 325.462 274.512 325.629 274.453L325.772 274.397C325.879 274.356 325.981 274.315 326.078 274.269L326.226 274.193L326.476 274.04C326.517 274.009 326.563 273.984 326.598 273.953C326.687 273.892 326.771 273.824 326.848 273.749L326.92 273.688C327.015 273.594 327.105 273.495 327.19 273.392L327.251 273.3C327.31 273.223 327.365 273.143 327.415 273.06C327.44 273.019 327.466 272.978 327.486 272.937C327.506 272.897 327.568 272.784 327.603 272.708C327.639 272.631 327.644 272.616 327.659 272.57C327.675 272.524 327.726 272.402 327.756 272.315C327.787 272.228 327.756 272.233 327.797 272.187C327.838 272.141 327.869 271.932 327.894 271.805V271.723C327.894 271.616 327.935 271.503 327.95 271.396C327.966 271.289 327.95 271.284 327.95 271.228C327.95 271.172 327.95 271.059 327.95 270.978V270.794C327.95 270.712 327.95 270.631 327.95 270.549V270.095C327.95 270.044 327.95 269.988 327.95 269.932C327.95 269.477 327.899 269.018 327.853 268.579C328.218 268.685 328.59 268.765 328.965 268.819C329.316 268.875 329.671 268.9 330.027 268.896H330.078C330.246 268.896 330.414 268.896 330.588 268.855C330.736 268.832 330.882 268.801 331.027 268.763H331.093C331.226 268.723 331.356 268.672 331.481 268.61L331.542 268.574C331.648 268.515 331.749 268.447 331.843 268.37L331.889 268.334C331.984 268.245 332.07 268.146 332.144 268.038L332.19 267.962C332.265 267.839 332.325 267.707 332.368 267.569C332.659 266.584 331.996 265.471 333.057 264.568C334.077 267.839 335.098 271.116 335.266 274.499C335.322 275.734 335.266 277.051 335.99 278.072C336.462 278.629 336.973 279.151 337.521 279.633C339.082 281.322 339.118 283.869 339.011 286.155C338.965 287.079 338.914 288.003 338.847 288.927C338.005 301.253 335.499 313.409 331.399 325.064C330.999 326.304 330.476 327.501 329.838 328.637C328.802 330.244 327.508 331.668 326.007 332.852C323.879 334.659 321.601 336.279 319.196 337.695C317.967 338.345 316.807 339.116 315.732 339.997C315.691 339.879 315.645 339.767 315.614 339.645C315.558 339.41 315.482 339.134 315.252 339.048C315.078 339.008 314.895 339.037 314.742 339.129C312.349 340.181 309.957 341.232 307.656 342.462C306.494 342.991 305.471 343.783 304.666 344.774C303.932 345.794 303.712 347.325 304.472 348.346C305.141 349.239 306.34 349.535 307.447 349.734C308.865 349.984 310.288 350.163 311.712 350.296C310.98 350.724 310.34 351.293 309.829 351.969C309.094 352.99 308.875 354.521 309.635 355.542C310.304 356.435 311.502 356.731 312.61 356.93C321.655 358.527 330.93 357.44 340.113 357.17C343.097 357.073 346.148 357.052 348.974 356.083C349.532 355.918 350.052 355.646 350.505 355.282C351.79 354.149 351.663 352.158 351.438 350.469L350.505 343.569C350.367 343.569 350.234 343.615 350.102 343.646C350.884 337.164 352.286 330.772 354.29 324.559C357.402 314.888 362.034 305.36 361.973 295.24C361.973 294.995 361.973 294.729 361.973 294.505C361.887 291.335 361.32 288.202 360.953 285.048C360.376 279.771 360.443 274.448 360.478 269.146C360.434 267.066 360.579 264.988 360.912 262.935C360.912 262.863 360.943 262.797 360.958 262.725L369.432 262.501C370.371 262.548 371.308 262.374 372.166 261.991C372.572 261.812 372.898 261.49 373.081 261.086C373.264 260.682 373.29 260.224 373.156 259.801C376.768 261.439 381.599 259.209 382.666 255.412C382.74 255.145 382.799 254.874 382.844 254.601C382.842 254.58 382.842 254.56 382.844 254.54C382.88 254.284 382.905 254.029 382.916 253.779C382.916 253.738 382.916 253.692 382.916 253.652C382.968 251.899 382.697 250.151 382.115 248.497C380.38 243.582 377.625 239.107 375.033 234.58C373.697 232.237 372.401 229.864 371.141 227.481L372.248 228.905C372.636 229.486 373.147 229.975 373.743 230.339C375.809 231.406 377.972 229.257 380.074 228.267C382.865 226.95 386.13 227.726 389.211 227.945C392.292 228.165 396.006 227.369 397.108 224.511C397.466 223.344 397.534 222.107 397.307 220.908ZM344.184 144.208C344.184 145.3 344.255 146.408 344.342 147.52C343.306 145.827 342.11 144.238 340.771 142.774L344.184 144.208Z" fill="url(#paint1_linear_158_2048)"/>
<path d="M277.53 177.988C278.095 177.24 278.805 176.613 279.617 176.146C279.41 177.065 279.019 177.933 278.469 178.697C277.581 179.907 276.648 180.739 276.388 180.54C276.127 180.341 276.633 179.197 277.53 177.988Z" fill="#99D55C"/>
<path opacity="0.1" d="M277.643 178.08C278.055 177.524 278.576 177.057 279.173 176.707C279.018 177.387 278.728 178.029 278.321 178.595C277.658 179.493 276.964 180.126 276.791 179.968C276.617 179.81 276.979 178.978 277.643 178.08Z" fill="black"/>
<path d="M276.291 176.972H276.801C276.833 176.972 276.865 176.979 276.895 176.991C276.924 177.003 276.952 177.021 276.974 177.044C276.997 177.067 277.015 177.094 277.027 177.123C277.04 177.153 277.046 177.185 277.046 177.217V182.999H276.077V177.217C276.076 177.157 276.098 177.099 276.137 177.054C276.177 177.009 276.231 176.98 276.291 176.972Z" fill="#F6987E"/>
<path d="M285.183 187.082C285.183 189.248 284.323 191.325 282.792 192.856C281.261 194.387 279.185 195.248 277.02 195.248C274.855 195.248 272.779 194.387 271.248 192.856C269.718 191.325 268.858 189.248 268.858 187.082C268.858 183.341 271.373 181.127 274.806 180.478C275.536 180.344 276.278 180.277 277.02 180.279C277.532 180.279 278.043 180.309 278.551 180.371C282.326 180.841 285.183 183.096 285.183 187.082Z" fill="#FC4A4A"/>
<path opacity="0.1" d="M278.551 180.371C278.403 180.652 277.602 180.881 276.633 180.881C276 180.928 275.367 180.795 274.806 180.499C275.536 180.364 276.278 180.297 277.02 180.3C277.531 180.292 278.043 180.316 278.551 180.371Z" fill="black"/>
<path opacity="0.1" d="M278.382 195.054C276.218 195.054 274.141 194.193 272.611 192.662C271.08 191.131 270.22 189.054 270.22 186.888C270.22 183.214 272.643 181.014 275.98 180.325C275.586 180.355 275.194 180.406 274.806 180.478C271.373 181.126 268.858 183.341 268.858 187.082C268.858 189.248 269.718 191.325 271.248 192.856C272.779 194.387 274.855 195.248 277.02 195.248C277.637 195.249 278.251 195.179 278.852 195.038C278.694 195.049 278.551 195.054 278.382 195.054Z" fill="black"/>
<path d="M314.365 346.192C315.492 347.213 317.216 347.188 318.747 347.075L325.721 346.565C331.261 346.157 336.99 345.697 341.878 343.059C342.395 342.822 342.853 342.474 343.22 342.038C343.608 341.371 343.811 340.611 343.806 339.839C344.466 332.28 345.969 324.818 348.286 317.593C351.347 307.973 355.938 298.49 355.877 288.421C355.877 288.176 355.877 287.911 355.877 287.692C355.79 284.538 355.234 281.419 354.892 278.281C354.326 273.029 354.382 267.737 354.423 262.46C354.379 260.391 354.523 258.323 354.851 256.28C355.173 254.621 356.382 252.957 355.642 251.498C354.209 248.665 349.01 247.624 346.214 247.522C342.449 247.39 338.745 248.375 335.108 249.354C334.001 249.656 332.843 249.977 332.006 250.758C330.884 251.809 330.562 253.458 330.522 254.994C330.328 261.807 334.251 268.145 334.562 274.948C334.618 276.173 334.562 277.5 335.276 278.521C335.747 279.076 336.259 279.597 336.807 280.077C338.337 281.756 338.383 284.288 338.276 286.564C338.23 287.482 338.179 288.401 338.118 289.32C337.285 301.58 334.808 313.673 330.756 325.273C330.366 326.512 329.853 327.709 329.226 328.846C328.202 330.442 326.923 331.859 325.44 333.041C323.339 334.836 321.088 336.448 318.711 337.858C317.125 338.797 315.431 339.696 314.344 341.186C313.257 342.676 313.018 344.937 314.365 346.192Z" fill="#FDA8A8"/>
<path opacity="0.1" d="M314.365 346.192C315.492 347.213 317.216 347.188 318.747 347.075L325.721 346.565C331.261 346.157 336.99 345.697 341.878 343.059C342.395 342.822 342.853 342.474 343.22 342.038C343.608 341.371 343.811 340.611 343.806 339.839C344.466 332.28 345.969 324.818 348.286 317.593C351.347 307.973 355.938 298.49 355.877 288.421C355.877 288.176 355.877 287.911 355.877 287.692C355.79 284.538 355.234 281.419 354.892 278.281C354.326 273.029 354.382 267.737 354.423 262.46C354.379 260.391 354.523 258.323 354.851 256.28C355.173 254.621 356.382 252.957 355.642 251.498C354.209 248.665 349.01 247.624 346.214 247.522C342.449 247.39 338.745 248.375 335.108 249.354C334.001 249.656 332.843 249.977 332.006 250.758C330.884 251.809 330.562 253.458 330.522 254.994C330.328 261.807 334.251 268.145 334.562 274.948C334.618 276.173 334.562 277.5 335.276 278.521C335.747 279.076 336.259 279.597 336.807 280.077C338.337 281.756 338.383 284.288 338.276 286.564C338.23 287.482 338.179 288.401 338.118 289.32C337.285 301.58 334.808 313.673 330.756 325.273C330.366 326.512 329.853 327.709 329.226 328.846C328.202 330.442 326.923 331.859 325.44 333.041C323.339 334.836 321.088 336.448 318.711 337.858C317.125 338.797 315.431 339.696 314.344 341.186C313.257 342.676 313.018 344.937 314.365 346.192Z" fill="black"/>
<path d="M314.365 346.192C315.492 347.213 317.216 347.188 318.747 347.075L325.721 346.565C331.261 346.157 336.99 345.697 341.878 343.059C342.395 342.822 342.853 342.474 343.22 342.038C343.608 341.371 343.811 340.611 343.806 339.839C344.466 332.28 345.969 324.818 348.286 317.593C351.347 307.973 355.938 298.49 355.877 288.421C349.98 289.074 344.05 289.367 338.118 289.299C337.285 301.559 334.808 313.652 330.756 325.253C330.366 326.492 329.853 327.688 329.226 328.825C328.202 330.422 326.923 331.839 325.44 333.02C323.339 334.816 321.088 336.427 318.711 337.838C317.125 338.777 315.431 339.675 314.344 341.166C313.257 342.656 313.018 344.937 314.365 346.192Z" fill="#EEEFF3"/>
<path opacity="0.1" d="M314.365 346.192C315.492 347.213 317.216 347.188 318.747 347.075L325.721 346.565C331.261 346.157 336.99 345.697 341.878 343.059C342.395 342.822 342.853 342.474 343.22 342.038C343.608 341.371 343.811 340.611 343.806 339.839C344.466 332.28 345.969 324.818 348.286 317.593C351.347 307.973 355.938 298.49 355.877 288.421C349.98 289.074 344.05 289.367 338.118 289.299C337.285 301.559 334.808 313.652 330.756 325.253C330.366 326.492 329.853 327.688 329.226 328.825C328.202 330.422 326.923 331.839 325.44 333.02C323.339 334.816 321.088 336.427 318.711 337.838C317.125 338.777 315.431 339.675 314.344 341.166C313.257 342.656 313.018 344.937 314.365 346.192Z" fill="black"/>
<path d="M329.772 344.039C331.447 343.438 333.057 342.669 334.577 341.742L342.266 337.404C342.96 336.954 343.734 336.641 344.546 336.48L345.464 343.345C345.694 345.029 345.816 347.009 344.546 348.137C344.092 348.499 343.573 348.769 343.016 348.933C340.225 349.897 337.215 349.918 334.261 350.01C325.19 350.301 316.028 351.362 307.09 349.77C305.998 349.576 304.814 349.259 304.156 348.392C303.406 347.371 303.621 345.891 304.345 344.855C305.139 343.87 306.15 343.083 307.299 342.554C309.574 341.329 311.936 340.288 314.298 339.241C314.444 339.155 314.617 339.126 314.783 339.16C315.013 339.236 315.084 339.517 315.145 339.752C315.558 341.426 316.905 342.748 318.441 343.539C318.461 343.539 326.374 345.121 329.772 344.039Z" fill="#BBBDC8"/>
<path opacity="0.1" d="M329.772 344.039C331.447 343.438 333.057 342.669 334.577 341.742L342.266 337.404C342.96 336.954 343.734 336.641 344.546 336.48L345.464 343.345C345.694 345.029 345.816 347.009 344.546 348.137C344.092 348.499 343.573 348.769 343.016 348.933C340.225 349.897 337.215 349.918 334.261 350.01C325.19 350.301 316.028 351.362 307.09 349.77C305.998 349.576 304.814 349.259 304.156 348.392C303.406 347.371 303.621 345.891 304.345 344.855C305.139 343.87 306.15 343.083 307.299 342.554C309.574 341.329 311.936 340.288 314.298 339.241C314.444 339.155 314.617 339.126 314.783 339.16C315.013 339.236 315.084 339.517 315.145 339.752C315.558 341.426 316.905 342.748 318.441 343.539C318.461 343.539 326.374 345.121 329.772 344.039Z" fill="black"/>
<path d="M319.466 353.337C320.594 354.358 322.318 354.332 323.848 354.22L330.822 353.71C336.363 353.301 342.092 352.842 346.979 350.204C347.497 349.967 347.955 349.618 348.321 349.183C348.71 348.515 348.912 347.756 348.908 346.983C349.568 339.424 351.07 331.963 353.387 324.737C356.448 315.117 361.04 305.635 360.978 295.566C360.978 295.321 360.978 295.056 360.978 294.836C360.892 291.682 360.336 288.564 359.994 285.426C359.427 280.174 359.484 274.882 359.524 269.605C359.481 267.536 359.624 265.468 359.953 263.425C360.274 261.766 361.483 260.102 360.744 258.643C359.31 255.81 354.112 254.769 351.316 254.667C347.551 254.534 343.847 255.519 340.209 256.499C339.102 256.8 337.944 257.122 337.108 257.903C335.985 258.954 335.664 260.602 335.623 262.139C335.429 268.952 339.352 275.29 339.664 282.093C339.72 283.318 339.664 284.645 340.378 285.665C340.849 286.221 341.361 286.742 341.908 287.222C343.439 288.901 343.485 291.432 343.378 293.708C343.332 294.627 343.281 295.546 343.219 296.464C342.386 308.725 339.91 320.817 335.858 332.418C335.467 333.657 334.954 334.853 334.327 335.991C333.304 337.587 332.025 339.004 330.542 340.186C328.44 341.981 326.189 343.593 323.813 345.003C322.226 345.942 320.532 346.84 319.446 348.331C318.359 349.821 318.119 352.082 319.466 353.337Z" fill="#FDA8A8"/>
<path d="M319.466 353.337C320.594 354.358 322.318 354.332 323.848 354.22L330.822 353.71C336.363 353.301 342.092 352.842 346.979 350.204C347.497 349.967 347.955 349.618 348.321 349.183C348.71 348.515 348.912 347.756 348.908 346.983C349.568 339.424 351.07 331.963 353.387 324.737C356.448 315.117 361.04 305.635 360.978 295.566C355.082 296.218 349.151 296.512 343.219 296.444C342.386 308.704 339.91 320.797 335.858 332.398C335.467 333.636 334.954 334.833 334.327 335.97C333.304 337.566 332.025 338.984 330.542 340.165C328.44 341.96 326.189 343.572 323.813 344.983C322.226 345.922 320.532 346.82 319.446 348.31C318.359 349.8 318.119 352.082 319.466 353.337Z" fill="#EEEFF3"/>
<path d="M334.873 351.184C336.549 350.583 338.159 349.814 339.679 348.887L347.367 344.549C348.062 344.099 348.836 343.786 349.648 343.625L350.566 350.49C350.795 352.174 350.918 354.154 349.648 355.282C349.194 355.644 348.674 355.914 348.117 356.078C345.327 357.042 342.317 357.063 339.363 357.155C330.292 357.446 321.129 358.507 312.191 356.915C311.099 356.721 309.916 356.405 309.258 355.537C308.508 354.516 308.722 353.036 309.447 352C310.241 351.015 311.252 350.228 312.4 349.699C314.676 348.474 317.038 347.433 319.4 346.386C319.546 346.3 319.718 346.271 319.885 346.305C320.114 346.381 320.186 346.662 320.247 346.897C320.66 348.571 322.007 349.893 323.542 350.684C323.563 350.684 331.476 352.266 334.873 351.184Z" fill="#BBBDC8"/>
<path d="M309.574 146.321C312.058 143.259 312.125 138.982 312.064 135.052C312.064 133.521 312.018 131.939 311.962 130.383V130.347C311.893 127.486 311.591 124.636 311.059 121.824C310.79 120.475 310.432 119.145 309.987 117.844C310.324 117.767 310.661 117.696 311.008 117.634C316.355 116.578 321.858 116.578 327.205 117.634C328.129 117.818 330.465 117.777 331.797 118.231C332.176 118.322 332.506 118.554 332.72 118.88C332.98 119.426 332.445 121.008 332.057 122.411C331.844 123.044 331.724 123.704 331.7 124.371C331.751 124.998 331.847 125.62 331.986 126.234C332.225 127.362 332.542 128.479 332.69 129.622C332.95 131.572 332.72 133.557 332.848 135.522C332.975 137.487 333.542 139.554 335.036 140.835C326.351 141.579 317.796 143.423 309.574 146.321Z" fill="#FDA8A8"/>
<path opacity="0.1" d="M334.021 126.009C333.343 126.065 332.669 126.132 331.981 126.208C325.185 126.934 318.479 128.336 311.962 130.393V130.357L311.059 121.835C311.059 121.324 311.059 120.814 311.059 120.278C311.059 119.405 311.033 118.522 311.013 117.645C316.36 116.588 321.863 116.588 327.21 117.645C328.134 117.828 330.47 117.788 331.802 118.242C331.802 119.074 331.802 119.905 331.833 120.737C331.866 121.304 331.943 121.867 332.062 122.421C332.306 123.799 332.994 125.059 334.021 126.009Z" fill="black"/>
<path d="M321.15 128.352C331.575 128.352 340.026 119.898 340.026 109.469C340.026 99.0403 331.575 90.5862 321.15 90.5862C310.725 90.5862 302.274 99.0403 302.274 109.469C302.274 119.898 310.725 128.352 321.15 128.352Z" fill="#FDA8A8"/>
<path d="M304.569 180.667C301.218 168.802 304.279 156.058 312.283 146.689C314.063 144.601 315.854 142.458 318.191 141.207C320.971 139.727 324.262 139.676 327.409 139.646C330.19 139.646 333.057 139.646 335.613 140.753C339.067 142.228 341.449 145.433 343.459 148.613C345.602 152.001 347.541 155.671 347.867 159.672C348.041 162.045 347.622 164.454 347.974 166.817C348.423 169.812 350.091 172.497 350.775 175.446C351.147 177.039 351.224 178.687 351.464 180.31C351.825 182.53 352.35 184.72 353.035 186.863C358.104 203.699 365.045 219.914 373.727 235.203C376.278 239.709 379.008 244.164 380.722 249.048C381.497 251.258 382.058 253.641 381.426 255.918C380.37 259.694 375.6 261.914 372.034 260.286C372.166 260.706 372.139 261.159 371.958 261.56C371.777 261.961 371.456 262.281 371.054 262.46C370.206 262.843 369.279 263.018 368.35 262.971L336.842 263.808C336.015 263.828 335.192 263.94 334.389 264.139C330.685 265.089 332.077 266.691 331.68 268.028C331.195 269.661 328.853 269.529 327.221 269.049C327.471 271.432 327.527 274.346 324.45 275.04C323.652 275.202 322.828 275.174 322.042 274.959C316.46 273.52 310.672 273.054 304.932 273.581C302.83 273.775 300.427 274.009 298.871 272.56C297.697 271.483 297.391 269.768 297.192 268.186C294.055 243.179 300.508 218.137 305.355 193.431C306.008 190.098 305.773 184.699 304.794 181.443L304.569 180.667Z" fill="#F75842"/>
<path d="M346.403 163.433C347.143 165.566 348.066 167.664 348.316 169.909C348.515 171.705 348.275 173.522 348.382 175.324C348.578 177.324 348.99 179.297 349.612 181.208C350.594 184.925 351.806 188.578 353.239 192.145C353.923 193.752 354.714 195.523 354.163 197.182C353.612 198.841 351.903 199.866 351.413 201.515C350.903 203.255 351.923 205.087 353.224 206.358C354.525 207.629 356.152 208.532 357.356 209.884C358.667 211.359 359.397 213.242 360.32 214.988C361.632 217.296 363.135 219.49 364.815 221.546L370.983 229.553C371.367 230.13 371.872 230.618 372.462 230.982C374.503 232.044 376.641 229.905 378.717 228.941C381.472 227.629 384.696 228.4 387.742 228.619C390.787 228.839 394.456 228.048 395.542 225.2C395.902 224.044 395.977 222.819 395.762 221.627C395.284 217.555 394.107 213.596 392.282 209.925C391.17 207.69 389.813 205.552 389.114 203.158C388.543 201.214 388.43 199.167 387.976 197.192C387.522 195.217 386.721 193.329 386.079 191.4C381.518 177.692 384.946 162.693 383.472 148.321C382.926 143.019 381.309 137.206 376.748 134.445C374.039 132.807 370.784 132.552 367.565 132.404L366.111 132.337L363.769 132.22C360.382 132.052 356.984 131.924 353.683 132.644C349.041 133.664 343.454 137.273 343.271 142.458C343.071 149.579 344.131 156.68 346.403 163.433Z" fill="#FA7800"/>
<path opacity="0.1" d="M363.794 132.2C364.421 135.672 364.733 139.194 364.728 142.723C364.82 152.797 365.907 162.831 366.998 172.833L367.718 179.468C367.85 180.693 368.008 181.979 368.738 182.964C369.467 183.949 370.998 184.464 371.962 183.704C372.554 181.361 372.437 178.901 372.319 176.487C372.064 171.353 371.811 166.218 371.559 161.08C371.314 156.079 371.049 151.072 370.442 146.101C369.966 142.251 369.264 138.432 368.34 134.665C368.165 133.884 367.921 133.121 367.61 132.383L366.156 132.317L363.794 132.2Z" fill="black"/>
<path d="M330.46 136.517C327.333 136.068 324.058 135.838 321.088 136.925C318.252 137.972 315.987 140.12 313.946 142.381C312.555 143.838 311.404 145.507 310.538 147.326C308.799 151.327 309.477 155.941 310.538 160.177C313.431 171.843 319.175 183.096 328.394 190.797C331.2 193.078 334.188 195.127 337.327 196.922C341.408 199.315 345.622 201.515 350.137 202.898C351.397 203.286 352.739 203.612 354.03 203.337C355.321 203.061 356.54 202.015 356.581 200.693C349.183 196.534 342.551 191.16 335.965 185.811C334.159 184.418 332.469 182.882 330.909 181.218C328.573 178.59 326.925 175.416 324.66 172.726C322.619 170.312 320.068 168.276 318.538 165.515C317.577 163.629 316.934 161.598 316.635 159.503C315.88 155.232 315.737 150.695 317.431 146.699C319.124 142.703 323.007 139.421 327.343 139.493C329.567 139.528 331.685 140.411 333.735 141.274L346.643 146.724C346.484 146.653 347.382 144.412 347.342 144.101C347.219 143.126 347.046 143.111 346.321 142.371C345.087 141.136 343.168 140.268 341.602 139.549C338.053 138.009 334.3 136.988 330.46 136.517Z" fill="#FA7800"/>
<path d="M304.768 105.897C308.451 105.078 311.859 103.32 314.66 100.793L311.962 114.96C314.65 113.726 317.257 112.321 319.767 110.755C320.129 117.236 319.604 123.866 317.216 129.898C314.829 135.93 310.426 141.33 304.518 144.009C309.763 144.887 314.472 141.121 319.14 138.574C322.394 136.803 327.955 138.625 331.516 137.553C334.536 136.665 337.638 135.889 340.363 134.302C345.423 131.347 346.571 122.717 347.597 116.951C348.622 111.184 347.689 105.213 345.985 99.5989C345.417 97.6107 344.65 95.6854 343.694 93.8524C342.38 91.4453 340.581 89.3371 338.411 87.6609C336.24 85.9847 333.746 84.7771 331.086 84.1142C328.425 83.4514 325.656 83.3478 322.954 83.81C320.251 84.2722 317.674 85.2901 315.385 86.7994C310.681 89.8972 306.319 94.4546 302.728 98.7772C302.217 99.3743 300.11 101.497 300.809 102.39C301.661 103.472 306.661 100.39 307.508 99.9714C307.263 100.895 305.743 105.657 304.768 105.897Z" fill="#FFD566"/>
<g opacity="0.1">
<path opacity="0.1" d="M325.996 270.957C325.198 271.119 324.374 271.091 323.588 270.876C318.006 269.437 312.218 268.971 306.477 269.498C304.375 269.692 301.973 269.926 300.417 268.477C299.243 267.4 298.937 265.685 298.738 264.103C295.601 239.096 302.054 214.054 306.901 189.348C307.554 186.016 307.319 180.616 306.34 177.36L306.11 176.569C304.221 169.822 304.333 162.671 306.431 155.987C302.951 163.744 302.292 172.475 304.569 180.667L304.799 181.458C305.778 184.714 306.013 190.134 305.36 193.446C300.529 218.152 294.075 243.21 297.197 268.201C297.396 269.784 297.708 271.498 298.876 272.575C300.406 274.009 302.835 273.774 304.937 273.596C310.677 273.069 316.465 273.535 322.048 274.974C322.833 275.189 323.658 275.217 324.456 275.055C326.966 274.489 327.389 272.442 327.328 270.416C326.92 270.676 326.469 270.859 325.996 270.957Z" fill="black"/>
<path opacity="0.1" d="M373.574 256.203C373.706 256.623 373.679 257.076 373.499 257.477C373.318 257.878 372.996 258.198 372.595 258.377C371.747 258.76 370.82 258.935 369.891 258.888L338.383 259.725C337.555 259.745 336.733 259.857 335.929 260.056C332.225 261.006 333.618 262.608 333.22 263.945C332.735 265.578 330.394 265.446 328.761 264.966C328.914 266.42 328.991 268.069 328.333 269.294C329.766 269.508 331.307 269.319 331.69 268.028C332.072 266.737 330.695 265.088 334.399 264.139C335.202 263.939 336.025 263.828 336.853 263.807L368.34 262.97C369.269 263.018 370.196 262.843 371.044 262.46C371.445 262.281 371.767 261.961 371.948 261.56C372.128 261.159 372.155 260.705 372.023 260.286C375.595 261.914 380.36 259.694 381.416 255.917C381.575 255.345 381.664 254.756 381.681 254.162C379.773 256.448 376.319 257.469 373.574 256.203Z" fill="black"/>
</g>
<path d="M331.307 149.562C334.017 155.326 336.413 161.232 338.485 167.255C340.159 172.109 341.633 177.207 341.077 182.31C340.521 187.414 337.506 192.568 332.608 194.176C330.527 194.86 328.297 194.865 326.109 194.916C320.866 195.039 315.635 195.462 310.441 196.182C308.024 196.581 305.587 196.852 303.141 196.993C299.682 197.105 296.223 196.564 292.774 196.845C287.193 197.299 281.892 199.907 276.291 199.907C275.608 199.949 274.924 199.823 274.301 199.54C273.281 198.988 272.827 197.794 272.48 196.692C271.699 194.201 271.087 191.343 272.408 189.093C274.036 186.322 277.735 185.765 280.944 185.52C288.168 185.01 295.4 184.653 302.641 184.449C308.819 184.275 315.512 184.04 320.303 180.131C320.626 179.9 320.89 179.596 321.073 179.243C321.254 178.646 321.233 178.005 321.012 177.421C319.113 169.999 318.299 162.341 318.594 154.685C318.561 153.999 318.739 153.318 319.104 152.736C319.538 152.269 320.101 151.942 320.721 151.797C324.998 150.424 329.578 150.297 333.924 151.429" fill="#FDA8A8"/>
<path d="M318.466 154.68C317.726 154.935 317.081 155.411 316.62 156.043C316.824 153.915 316.548 151.766 316.589 149.623C316.63 147.479 317.028 145.244 318.38 143.58C320.099 141.457 323.022 140.697 325.757 140.625C329.726 140.518 333.833 141.672 336.74 144.377C338.612 146.13 339.827 148.471 340.184 151.011C340.276 151.71 340.582 154.333 339.852 154.782C339.215 155.181 336.792 153.808 336.011 153.588C330.215 151.884 324.006 152.271 318.466 154.68Z" fill="#F75842"/>
<path opacity="0.1" d="M241.309 34.1932C243.281 34.1932 244.88 32.5937 244.88 30.6208C244.88 28.6478 243.281 27.0483 241.309 27.0483C239.336 27.0483 237.738 28.6478 237.738 30.6208C237.738 32.5937 239.336 34.1932 241.309 34.1932Z" fill="#FA7800"/>
<path opacity="0.1" d="M265.286 103.09C267.259 103.09 268.858 101.49 268.858 99.5172C268.858 97.5442 267.259 95.9448 265.286 95.9448C263.314 95.9448 261.715 97.5442 261.715 99.5172C261.715 101.49 263.314 103.09 265.286 103.09Z" fill="#FA7800"/>
<path opacity="0.1" d="M197.434 37.7654C199.407 37.7654 201.006 36.166 201.006 34.193C201.006 32.22 199.407 30.6206 197.434 30.6206C195.462 30.6206 193.863 32.22 193.863 34.193C193.863 36.166 195.462 37.7654 197.434 37.7654Z" fill="#FA7800"/>
<path opacity="0.1" d="M87.7487 206.179C92.8203 206.179 96.9317 202.066 96.9317 196.993C96.9317 191.92 92.8203 187.807 87.7487 187.807C82.677 187.807 78.5657 191.92 78.5657 196.993C78.5657 202.066 82.677 206.179 87.7487 206.179Z" fill="#FA7800"/>
<path opacity="0.1" d="M457.619 54.607C459.592 54.607 461.19 53.0076 461.19 51.0346C461.19 49.0616 459.592 47.4622 457.619 47.4622C455.647 47.4622 454.048 49.0616 454.048 51.0346C454.048 53.0076 455.647 54.607 457.619 54.607Z" fill="#FA7800"/>
<path opacity="0.1" d="M461.701 111.255C468.181 111.255 473.434 106 473.434 99.5172C473.434 93.0345 468.181 87.7793 461.701 87.7793C455.22 87.7793 449.967 93.0345 449.967 99.5172C449.967 106 455.22 111.255 461.701 111.255Z" fill="#FA7800"/>
<path opacity="0.1" d="M480.577 69.9173C482.549 69.9173 484.148 68.3179 484.148 66.3449C484.148 64.3719 482.549 62.7725 480.577 62.7725C478.604 62.7725 477.006 64.3719 477.006 66.3449C477.006 68.3179 478.604 69.9173 480.577 69.9173Z" fill="#FA7800"/>
<path opacity="0.1" d="M448.946 135.242C450.919 135.242 452.518 133.642 452.518 131.669C452.518 129.696 450.919 128.097 448.946 128.097C446.974 128.097 445.375 129.696 445.375 131.669C445.375 133.642 446.974 135.242 448.946 135.242Z" fill="#FA7800"/>
<path opacity="0.1" d="M234.166 62.7725C236.139 62.7725 237.738 61.1731 237.738 59.2001C237.738 57.2271 236.139 55.6277 234.166 55.6277C232.194 55.6277 230.595 57.2271 230.595 59.2001C230.595 61.1731 232.194 62.7725 234.166 62.7725Z" fill="#FA7800"/>
<path opacity="0.1" d="M100.503 243.434C102.475 243.434 104.074 241.835 104.074 239.862C104.074 237.889 102.475 236.29 100.503 236.29C98.5305 236.29 96.9316 237.889 96.9316 239.862C96.9316 241.835 98.5305 243.434 100.503 243.434Z" fill="#FA7800"/>
<path opacity="0.1" d="M94.891 161.779C96.8633 161.779 98.4622 160.18 98.4622 158.207C98.4622 156.234 96.8633 154.635 94.891 154.635C92.9187 154.635 91.3198 156.234 91.3198 158.207C91.3198 160.18 92.9187 161.779 94.891 161.779Z" fill="#FA7800"/>
<path opacity="0.1" d="M290.795 30.6207C292.767 30.6207 294.366 29.0212 294.366 27.0482C294.366 25.0753 292.767 23.4758 290.795 23.4758C288.822 23.4758 287.224 25.0753 287.224 27.0482C287.224 29.0212 288.822 30.6207 290.795 30.6207Z" fill="#FA7800"/>
<path opacity="0.1" d="M302.529 62.7725C304.501 62.7725 306.1 61.1731 306.1 59.2001C306.1 57.2271 304.501 55.6277 302.529 55.6277C300.556 55.6277 298.958 57.2271 298.958 59.2001C298.958 61.1731 300.556 62.7725 302.529 62.7725Z" fill="#FA7800"/>
<defs>
<linearGradient id="paint0_linear_158_2048" x1="196.19" y1="359.604" x2="196.19" y2="83.6965" gradientUnits="userSpaceOnUse">
<stop stop-color="#808080" stop-opacity="0.25"/>
<stop offset="0.54" stop-color="#808080" stop-opacity="0.12"/>
<stop offset="1" stop-color="#808080" stop-opacity="0.1"/>
</linearGradient>
<linearGradient id="paint1_linear_158_2048" x1="333.139" y1="357.772" x2="333.139" y2="82.1654" gradientUnits="userSpaceOnUse">
<stop stop-color="#808080" stop-opacity="0.25"/>
<stop offset="0.54" stop-color="#808080" stop-opacity="0.12"/>
<stop offset="1" stop-color="#808080" stop-opacity="0.1"/>
</linearGradient>
</defs>
</svg>
