<svg width="552" height="644" viewBox="0 0 552 644" fill="none" xmlns="http://www.w3.org/2000/svg">
<g clip-path="url(#clip0_147_1943)">
<path d="M534.159 237.361H17.3683C12.7636 237.356 8.34895 235.524 5.09291 232.267C1.83688 229.01 0.00531698 224.595 0 219.989V17.3725C0.00531698 12.7667 1.83688 8.35099 5.09291 5.09416C8.34895 1.83733 12.7636 0.00531827 17.3683 0H534.159C538.764 0.00531827 543.178 1.83733 546.434 5.09416C549.69 8.35099 551.522 12.7667 551.527 17.3725V219.989C551.522 224.595 549.69 229.01 546.434 232.267C543.178 235.524 538.764 237.356 534.159 237.361Z" fill="#F2F2F2"/>
<path d="M413.632 226.281H99.4009C75.9848 226.255 53.5354 216.939 36.9777 200.377C20.4201 183.816 11.1064 161.361 11.08 137.939V99.432C11.1064 76.0101 20.42 53.5552 36.9777 36.9933C53.5353 20.4315 75.9847 11.1154 99.4009 11.0889H452.129C475.545 11.1154 497.995 20.4315 514.552 36.9933C531.11 53.5552 540.424 76.0101 540.45 99.432C540.412 133.063 527.039 165.305 503.264 189.086C479.489 212.867 447.254 226.243 413.632 226.281Z" fill="white"/>
<path d="M332.573 69.0911H124.862C123.674 69.0911 122.535 68.6191 121.695 67.7789C120.855 66.9386 120.383 65.799 120.383 64.6108C120.383 63.4225 120.855 62.2829 121.695 61.4427C122.535 60.6024 123.674 60.1304 124.862 60.1304H332.573C333.761 60.1304 334.9 60.6024 335.74 61.4427C336.58 62.2829 337.052 63.4225 337.052 64.6108C337.052 65.799 336.58 66.9386 335.74 67.7789C334.9 68.6191 333.761 69.0911 332.573 69.0911Z" fill="#E6E6E6"/>
<path d="M437.72 116.894H124.862C123.674 116.894 122.535 116.422 121.695 115.582C120.855 114.741 120.383 113.602 120.383 112.413C120.383 111.225 120.855 110.086 121.695 109.245C122.535 108.405 123.674 107.933 124.862 107.933H437.72C438.908 107.933 440.047 108.405 440.887 109.245C441.727 110.086 442.199 111.225 442.199 112.413C442.199 113.602 441.727 114.741 440.887 115.582C440.047 116.422 438.908 116.894 437.72 116.894Z" fill="#E6E6E6"/>
<path d="M437.72 164.697H124.862C123.674 164.697 122.535 164.225 121.695 163.384C120.855 162.544 120.383 161.404 120.383 160.216C120.383 159.028 120.855 157.888 121.695 157.048C122.535 156.208 123.674 155.736 124.862 155.736H437.72C438.908 155.736 440.047 156.208 440.887 157.048C441.727 157.888 442.199 159.028 442.199 160.216C442.199 161.404 441.727 162.544 440.887 163.384C440.047 164.225 438.908 164.697 437.72 164.697Z" fill="#E6E6E6"/>
<path d="M437.72 164.697H124.862C123.674 164.697 122.535 164.225 121.695 163.384C120.855 162.544 120.383 161.404 120.383 160.216C120.383 159.028 120.855 157.888 121.695 157.048C122.535 156.208 123.674 155.736 124.862 155.736H437.72C438.908 155.736 440.047 156.208 440.887 157.048C441.727 157.888 442.199 159.028 442.199 160.216C442.199 161.404 441.727 162.544 440.887 163.384C440.047 164.225 438.908 164.697 437.72 164.697Z" fill="#E6E6E6"/>
<path d="M310.654 122.38C310.704 123.73 311.049 125.052 311.665 126.254C312.281 127.456 313.153 128.508 314.219 129.336C315.286 130.164 316.521 130.749 317.837 131.048C319.154 131.347 320.52 131.354 321.839 131.068L338.922 159.098L346.192 143.667L328.856 119.415C328.228 117.229 326.821 115.35 324.901 114.133C322.981 112.916 320.682 112.445 318.438 112.811C316.194 113.177 314.163 114.353 312.728 116.116C311.294 117.88 310.556 120.109 310.654 122.38H310.654Z" fill="#FFB6B6"/>
<path d="M438.846 202.714L379.977 170.774L361.408 153.349C361.408 153.349 353.336 151.187 356.307 148.562C359.278 145.937 350.811 143.405 350.811 143.405L340.843 134.05L326.679 144.075L330.778 150.431C330.778 150.431 330.496 160.953 336.259 158.929C342.022 156.904 340.582 165.631 340.582 165.631L374.979 218.964L438.846 202.714Z" fill="#3F3D56"/>
<path d="M265.071 172.622C296.828 172.622 322.572 146.872 322.572 115.107C322.572 83.3427 296.828 57.5925 265.071 57.5925C233.315 57.5925 207.571 83.3427 207.571 115.107C207.571 146.872 233.315 172.622 265.071 172.622Z" fill="#FA7800"/>
<path d="M439.028 621.639H427.071L421.382 575.512H439.028V621.639Z" fill="#FFB6B6"/>
<path d="M445.338 642.359H436.764L435.234 634.262L431.314 642.359H408.574C407.484 642.359 406.422 642.01 405.544 641.364C404.666 640.718 404.017 639.808 403.693 638.767C403.369 637.726 403.385 636.609 403.741 635.578C404.096 634.548 404.772 633.658 405.669 633.038L423.829 620.493V612.308L442.93 613.448L445.338 642.359Z" fill="#2F2E41"/>
<path d="M343.404 621.639H331.448L325.759 575.512H343.404V621.639Z" fill="#FFB6B6"/>
<path d="M349.715 642.359H341.141L339.611 634.262L335.691 642.359H312.95C311.86 642.359 310.799 642.01 309.921 641.364C309.043 640.718 308.394 639.808 308.07 638.767C307.746 637.726 307.762 636.609 308.118 635.578C308.473 634.548 309.149 633.658 310.046 633.038L328.206 620.493V612.308L347.307 613.448L349.715 642.359Z" fill="#2F2E41"/>
<path d="M426.342 272.786H365.997V341.503H426.342V272.786Z" fill="#FFB6B6"/>
<path d="M367.389 306.68L357.177 318.752L339.538 355.896L295.092 461.674L285.692 484.044L293.283 523.59C293.283 523.59 294.512 551.451 294.512 556.011C294.512 565.297 302.276 570.443 302.276 570.443L307.973 600.12L363.212 597.799C363.212 597.799 361.284 565.086 349.715 556.834C338.145 548.582 332.827 505.578 332.827 505.578L326.541 486.497L387.814 413.847L388.209 439.242L388.401 451.534C388.401 451.534 379.428 531.481 389.887 546.996C400.347 562.512 390.1 560.686 390.1 560.686L390.599 592.691L456.05 593.156L441.61 501.012C441.61 501.012 434.278 495.221 438.201 489.401C442.124 483.58 434.399 476.451 434.399 476.451L437.864 404.517C437.864 404.517 434.028 392.092 438.54 390.477C443.052 388.862 439.132 378.177 439.132 378.177L439.803 364.254L426.341 321.074L367.389 306.68Z" fill="#2F2E41"/>
<path d="M427.27 272.786L433.769 253.285L438.411 246.785L440.267 228.213C440.267 178.068 429.085 186.418 429.085 186.418L422.628 168.782L392.92 167.853L373.888 185.961L358.106 191.533L351.925 223.654L363.212 257.928L365.997 276.5C360.684 286.311 361.133 281.671 365.533 289.037L417.986 303.43C436.554 309.93 436.554 293.215 432.831 289.037C429.107 284.858 427.27 272.786 427.27 272.786Z" fill="#3F3D56"/>
<path d="M403.936 161.62C419.146 161.62 431.477 149.286 431.477 134.072C431.477 118.858 419.146 106.525 403.936 106.525C388.726 106.525 376.396 118.858 376.396 134.072C376.396 149.286 388.726 161.62 403.936 161.62Z" fill="#FFB6B6"/>
<path d="M440.704 170.843C440.963 171.281 441.12 171.772 441.164 172.279C441.207 172.787 441.136 173.297 440.955 173.773C440.774 174.248 440.487 174.677 440.118 175.027C439.748 175.377 439.304 175.638 438.819 175.793C435.124 177.019 432.849 180.594 430.194 183.454C427.548 186.305 423.287 188.673 419.908 186.732C416.538 184.8 416.306 179.869 413.484 177.195C410.735 174.595 406.168 174.911 402.937 176.889L402.84 176.948C402.283 177.312 401.631 177.504 400.965 177.501C400.299 177.498 399.649 177.3 399.095 176.931C398.54 176.562 398.106 176.039 397.846 175.426C397.586 174.813 397.511 174.138 397.63 173.482C398.762 167.461 399.894 161.44 401.025 155.419C398.053 162.579 393.739 169.104 388.315 174.641C386.821 176.366 384.928 177.699 382.8 178.523C380.869 179.136 378.994 177.139 377.119 177.501C381.779 173.425 397.45 147.294 394.647 129.827C391.351 130.198 388.055 130.57 384.759 130.941C384.403 129.381 383.64 127.943 382.55 126.772C382.683 128.29 382.49 129.819 381.983 131.257C380.609 131.415 379.226 131.563 377.852 131.721C375.94 131.935 373.86 132.12 372.217 131.118C369.478 129.446 369.395 125.49 370.174 122.37C372.458 113.298 379.384 105.711 387.86 101.736C396.336 97.7712 398.843 106.602 407.774 103.779C425.413 98.2077 438.93 107.735 443.693 125.416C447.694 140.246 444.788 155.986 440.704 170.843Z" fill="#2F2E41"/>
<path d="M516.949 642.958H483.226L483.081 642.695C482.65 641.913 482.233 641.084 481.844 640.233C478.371 632.794 476.902 624.287 475.607 616.781L474.631 611.123C474.513 610.438 474.602 609.733 474.887 609.098C475.172 608.464 475.639 607.929 476.23 607.562C476.82 607.195 477.506 607.013 478.201 607.038C478.896 607.064 479.567 607.296 480.129 607.705C485.254 611.435 490.381 615.162 495.51 618.885C497.452 620.298 499.67 621.934 501.794 623.702C501.999 622.706 502.213 621.708 502.428 620.723C502.575 620.043 502.923 619.423 503.425 618.942C503.927 618.46 504.562 618.14 505.247 618.021C505.932 617.903 506.638 617.992 507.272 618.276C507.907 618.561 508.442 619.029 508.81 619.619L512.755 625.96C515.633 630.59 518.173 635.153 517.656 640.075C517.658 640.135 517.654 640.195 517.642 640.253C517.539 641.062 517.347 641.856 517.07 642.623L516.949 642.958Z" fill="#F0F0F0"/>
<path d="M550.796 643.688L230.341 644C230.021 643.998 229.715 643.87 229.49 643.643C229.264 643.417 229.137 643.11 229.137 642.79C229.137 642.47 229.264 642.163 229.49 641.936C229.715 641.709 230.021 641.581 230.341 641.579L550.796 641.267C551.116 641.269 551.422 641.397 551.648 641.624C551.874 641.85 552 642.157 552 642.477C552 642.797 551.874 643.104 551.648 643.331C551.422 643.558 551.116 643.686 550.796 643.688Z" fill="#CACACA"/>
<path d="M259.844 192.518L224.596 162.743C223.391 161.723 222.64 160.267 222.507 158.694C222.375 157.12 222.871 155.559 223.888 154.351L230.376 146.667C231.396 145.462 232.852 144.711 234.425 144.578C235.998 144.445 237.559 144.942 238.766 145.96L274.015 175.734C275.22 176.754 275.971 178.211 276.103 179.784C276.236 181.357 275.739 182.919 274.722 184.126L268.234 191.81C267.215 193.016 265.759 193.767 264.186 193.899C262.613 194.032 261.052 193.535 259.844 192.518Z" fill="#3F3D56"/>
<path d="M226.445 154.971C225.897 155.621 225.63 156.463 225.701 157.311C225.773 158.159 226.177 158.943 226.827 159.493L262.075 189.268C262.726 189.816 263.567 190.084 264.415 190.012C265.262 189.941 266.047 189.536 266.596 188.886L273.084 181.202C273.632 180.552 273.9 179.71 273.828 178.862C273.757 178.015 273.352 177.23 272.703 176.68L237.454 146.905C236.804 146.357 235.962 146.09 235.115 146.161C234.267 146.233 233.482 146.637 232.933 147.287L226.445 154.971Z" fill="white"/>
<path d="M247.139 166.545C247.016 166.717 246.856 166.857 246.67 166.955C246.484 167.054 246.278 167.107 246.067 167.112L240.529 167.239C240.351 167.244 240.174 167.212 240.008 167.148C239.842 167.084 239.69 166.987 239.562 166.864C239.433 166.742 239.33 166.594 239.258 166.432C239.186 166.269 239.147 166.093 239.143 165.915C239.139 165.737 239.17 165.56 239.234 165.394C239.298 165.228 239.395 165.077 239.518 164.948C239.641 164.819 239.788 164.716 239.951 164.644C240.113 164.572 240.289 164.533 240.467 164.529L244.09 164.446L240.522 155.028C240.395 154.692 240.407 154.32 240.555 153.993C240.703 153.666 240.974 153.411 241.31 153.283C241.645 153.156 242.018 153.167 242.345 153.314C242.673 153.461 242.928 153.732 243.056 154.067L247.304 165.277C247.38 165.479 247.407 165.698 247.382 165.913C247.358 166.128 247.281 166.335 247.16 166.514L247.139 166.545Z" fill="#FA7800"/>
<path d="M247.849 168.912C249.185 169.108 250.461 169.595 251.589 170.338C252.716 171.081 253.667 172.063 254.374 173.213C255.081 174.364 255.528 175.655 255.682 176.997C255.836 178.338 255.694 179.698 255.267 180.979L281.267 201.011L265.14 206.562L242.922 186.688C240.819 185.826 239.104 184.223 238.103 182.182C237.102 180.14 236.885 177.802 237.492 175.611C238.1 173.42 239.489 171.528 241.398 170.293C243.307 169.059 245.602 168.567 247.849 168.912L247.849 168.912Z" fill="#FFB6B6"/>
<path d="M383.211 178.817L316.642 219.756C316.642 219.756 289.803 209.823 295.048 205.225C300.294 200.626 283.595 197.518 283.595 197.518L265.149 185.104L254.444 197.547C254.444 197.547 256.395 217.759 259.713 214.259C263.032 210.76 267.992 220.32 267.992 220.32C267.992 220.32 269.458 230.995 278.905 228.308C288.352 225.622 313.701 253.78 313.701 253.78L395.626 223.218L383.211 178.817Z" fill="#3F3D56"/>
<path d="M263.049 138.179C262.278 138.179 261.517 137.999 260.826 137.654C260.136 137.308 259.536 136.807 259.073 136.189L246.881 119.929C246.489 119.407 246.204 118.813 246.042 118.18C245.88 117.548 245.845 116.889 245.937 116.243C246.029 115.597 246.248 114.975 246.581 114.413C246.913 113.851 247.353 113.36 247.875 112.968C248.93 112.177 250.256 111.838 251.561 112.024C252.207 112.116 252.829 112.335 253.391 112.668C253.952 113.001 254.443 113.441 254.835 113.963L262.811 124.6L283.297 93.8636C284.029 92.7663 285.166 92.0046 286.459 91.746C287.751 91.4874 289.094 91.753 290.191 92.4845C291.288 93.216 292.049 94.3535 292.308 95.6466C292.567 96.9398 292.301 98.2827 291.57 99.3799L267.186 135.964C266.745 136.626 266.152 137.172 265.456 137.557C264.76 137.942 263.982 138.155 263.188 138.177C263.142 138.178 263.095 138.179 263.049 138.179Z" fill="white"/>
</g>
<defs>
<clipPath id="clip0_147_1943">
<rect width="552" height="644" fill="white"/>
</clipPath>
</defs>
</svg>
